# Blender v3.1.2 OBJ File: 'shelby_cobra1.blend'
# www.blender.org
mtllib back_plane.mtl
o Plane_Plane.032
v 3.456723 -0.004945 18.605968
v 3.456723 -0.004945 -18.226933
v -3.442890 2.799919 18.605968
v -3.442890 2.799919 -18.226933
v -1.510998 -0.004945 18.605968
v -3.442890 1.649279 18.605968
v -1.940885 0.036529 18.605968
v -2.349215 0.158874 18.605968
v -2.715513 0.355954 18.605968
v -3.021412 0.617887 18.605968
v -3.251572 0.931538 18.605968
v -3.394453 1.281180 18.605968
v -3.442890 1.649279 -18.226933
v -1.510998 -0.004945 -18.226933
v -3.394453 1.281180 -18.226933
v -3.251572 0.931538 -18.226933
v -3.021412 0.617887 -18.226933
v -2.715513 0.355954 -18.226933
v -2.349215 0.158874 -18.226933
v -1.940885 0.036529 -18.226933
vt 1.000000 0.000000
vt 0.280000 1.000000
vt 0.280000 0.000000
vt 0.000000 0.000000
vt 0.000000 1.000000
vt 0.000000 1.000000
vt 0.000000 0.000000
vt 0.000000 1.000000
vt 0.000000 0.000000
vt 0.000000 1.000000
vt 0.000000 0.000000
vt 0.105423 1.000000
vt 0.105423 0.000000
vt 0.158513 1.000000
vt 0.158513 0.000000
vt 0.217694 1.000000
vt 0.217694 0.000000
vt 0.000000 1.000000
vt 0.000000 0.000000
vt 1.000000 1.000000
vn 0.0000 1.0000 0.0000
vn 0.0481 0.9988 0.0000
vn 0.9979 0.0654 0.0000
vn 0.9665 0.2565 0.0000
vn 0.8725 0.4886 -0.0000
vn 0.7331 0.6801 -0.0000
vn 0.5654 0.8248 -0.0000
vn 0.3824 0.9240 -0.0000
vn 0.1924 0.9813 -0.0000
vn 1.0000 0.0000 0.0000
usemtl Material.034
s 1
f 1/1/1 14/2/2 5/3/2
f 6/4/3 15/5/4 13/6/3
f 12/7/4 16/8/5 15/5/4
f 11/9/5 17/10/6 16/8/5
f 10/11/6 18/12/7 17/10/6
f 9/13/7 19/14/8 18/12/7
f 8/15/8 20/16/9 19/14/8
f 7/17/9 14/2/2 20/16/9
f 6/4/3 4/18/10 3/19/10
f 1/1/1 2/20/1 14/2/2
f 6/4/3 12/7/4 15/5/4
f 12/7/4 11/9/5 16/8/5
f 11/9/5 10/11/6 17/10/6
f 10/11/6 9/13/7 18/12/7
f 9/13/7 8/15/8 19/14/8
f 8/15/8 7/17/9 20/16/9
f 7/17/9 5/3/2 14/2/2
f 6/4/3 13/6/3 4/18/10
