# Blender v3.1.2 OBJ File: 'shelby_cobra2.blend'
# www.blender.org
mtllib Shelby_Cobra_cooler.mtl
o Shelby_Cobra_cooler.001_Plane.030
v -0.158793 0.151953 1.734716
v 0.167123 0.151953 1.734716
v -0.158793 0.250898 1.682074
v 0.167123 0.250898 1.682074
v -0.158793 0.139741 1.711763
v 0.167123 0.139741 1.711763
v -0.158793 0.238686 1.659120
v 0.167123 0.238686 1.659120
vt 0.109443 0.775530
vt 0.792464 0.181259
vt 0.792464 0.775530
vt 0.792464 0.181259
vt 0.109443 0.775530
vt 0.792464 0.775530
vt 0.109443 0.181258
vt 0.109443 0.181258
vn 0.0000 0.4697 0.8828
vn 0.0000 -0.4697 -0.8828
vn -1.0000 0.0000 0.0000
vn 0.0000 -0.8828 0.4697
vn 1.0000 0.0000 0.0000
vn 0.0000 0.8828 -0.4697
usemtl chladič
s off
f 2/1/1 3/2/1 1/3/1
f 7/4/2 6/5/2 5/6/2
f 1/3/3 7/4/3 5/6/3
f 1/3/4 6/5/4 2/1/4
f 2/1/5 8/7/5 4/8/5
f 4/8/6 7/4/6 3/2/6
f 2/1/1 4/8/1 3/2/1
f 7/4/2 8/7/2 6/5/2
f 1/3/3 3/2/3 7/4/3
f 1/3/4 5/6/4 6/5/4
f 2/1/5 6/5/5 8/7/5
f 4/8/6 8/7/6 7/4/6
