# Blender v3.1.2 OBJ File: 'shelby_cobra2.blend'
# www.blender.org
mtllib Shelby_Cobra_hook_gripping_front.mtl
o Shelby_Cobra_hook_gripping_front_Circle.037
v -0.387414 0.346216 1.702050
v -0.389582 0.345785 1.702050
v -0.391420 0.344557 1.702050
v -0.392648 0.342719 1.702050
v -0.393079 0.340551 1.702050
v -0.392648 0.338383 1.702050
v -0.391420 0.336545 1.702050
v -0.389582 0.335317 1.702050
v -0.387414 0.334886 1.702050
v -0.385246 0.335317 1.702050
v -0.383408 0.336545 1.702050
v -0.382180 0.338383 1.702050
v -0.381749 0.340551 1.702050
v -0.382180 0.342719 1.702050
v -0.383408 0.344557 1.702050
v -0.385246 0.345785 1.702050
v -0.387414 0.394462 1.702050
v -0.389582 0.394031 1.702050
v -0.391420 0.392803 1.702050
v -0.392648 0.390965 1.702050
v -0.393079 0.388797 1.702050
v -0.392648 0.386629 1.702050
v -0.391420 0.384791 1.702050
v -0.389582 0.383563 1.702050
v -0.387414 0.383132 1.702050
v -0.385246 0.383563 1.702050
v -0.383408 0.384791 1.702050
v -0.382180 0.386629 1.702050
v -0.381749 0.388797 1.702050
v -0.382180 0.390965 1.702050
v -0.383408 0.392803 1.702050
v -0.385246 0.394031 1.702050
v -0.387414 0.340551 1.880254
v -0.387414 0.340551 1.880254
v -0.387414 0.340551 1.880254
v -0.387414 0.340551 1.880254
v -0.387414 0.340551 1.880254
v -0.387414 0.340551 1.880254
v -0.387414 0.340551 1.880254
v -0.387414 0.340551 1.880254
v -0.387414 0.340551 1.880254
v -0.387414 0.340551 1.880254
v -0.387414 0.340551 1.880254
v -0.387414 0.340551 1.880254
v -0.387414 0.340551 1.880254
v -0.387414 0.340551 1.880254
v -0.387414 0.340551 1.880254
v -0.387414 0.340551 1.880254
v -0.387414 0.388797 1.880254
v -0.387414 0.388797 1.880254
v -0.387414 0.388797 1.880254
v -0.387414 0.388797 1.880254
v -0.387414 0.388797 1.880254
v -0.387414 0.388797 1.880254
v -0.387414 0.388797 1.880254
v -0.387414 0.388797 1.880254
v -0.387414 0.388797 1.880254
v -0.387414 0.388797 1.880254
v -0.387414 0.388797 1.880254
v -0.387414 0.388797 1.880254
v -0.387414 0.388797 1.880254
v -0.387414 0.388797 1.880254
v -0.387414 0.388797 1.880254
v -0.387414 0.388797 1.880254
v -0.387414 0.346216 1.879254
v -0.387414 0.345196 1.880254
v -0.389192 0.344843 1.880254
v -0.389582 0.345785 1.879254
v -0.390699 0.343836 1.880254
v -0.391420 0.344557 1.879254
v -0.391706 0.342329 1.880254
v -0.392648 0.342719 1.879254
v -0.392059 0.340551 1.880254
v -0.393079 0.340551 1.879254
v -0.391706 0.338773 1.880254
v -0.392648 0.338383 1.879254
v -0.390699 0.337266 1.880254
v -0.391420 0.336545 1.879254
v -0.389192 0.336259 1.880254
v -0.389582 0.335317 1.879254
v -0.387414 0.335905 1.880254
v -0.387414 0.334886 1.879254
v -0.385636 0.336259 1.880254
v -0.385246 0.335317 1.879254
v -0.384129 0.337266 1.880254
v -0.383408 0.336545 1.879254
v -0.383122 0.338773 1.880254
v -0.382180 0.338383 1.879254
v -0.382768 0.340551 1.880254
v -0.381749 0.340551 1.879254
v -0.383122 0.342329 1.880254
v -0.382180 0.342719 1.879254
v -0.384129 0.343836 1.880254
v -0.383408 0.344557 1.879254
v -0.385636 0.344843 1.880254
v -0.385246 0.345785 1.879254
v -0.387414 0.394462 1.879254
v -0.387414 0.393443 1.880254
v -0.389192 0.393089 1.880254
v -0.389582 0.394031 1.879254
v -0.390699 0.392082 1.880254
v -0.391420 0.392803 1.879254
v -0.391706 0.390575 1.880254
v -0.392648 0.390965 1.879254
v -0.392059 0.388797 1.880254
v -0.393079 0.388797 1.879254
v -0.391706 0.387020 1.880254
v -0.392648 0.386629 1.879254
v -0.390699 0.385512 1.880254
v -0.391420 0.384791 1.879254
v -0.389192 0.384505 1.880254
v -0.389582 0.383563 1.879254
v -0.387414 0.384152 1.880254
v -0.387414 0.383132 1.879254
v -0.385636 0.384505 1.880254
v -0.385246 0.383563 1.879254
v -0.384129 0.385512 1.880254
v -0.383408 0.384791 1.879254
v -0.383122 0.387020 1.880254
v -0.382180 0.386629 1.879254
v -0.382768 0.388797 1.880254
v -0.381749 0.388797 1.879254
v -0.383122 0.390575 1.880254
v -0.382180 0.390965 1.879254
v -0.384129 0.392082 1.880254
v -0.383408 0.392803 1.879254
v -0.385636 0.393089 1.880254
v -0.385246 0.394031 1.879254
vt 0.779794 0.036265
vt 0.779794 0.026093
vt 0.754226 0.031179
vt 0.739743 0.009504
vt 0.732551 0.016696
vt 0.754226 0.031179
vt 0.768709 0.052854
vt 0.775901 0.045662
vt 0.754226 0.031179
vt 0.723047 0.124717
vt 0.723047 0.124717
vt 0.723047 0.124717
vt 0.754837 0.252760
vt 0.744860 0.254744
vt 0.754837 0.278828
vt 0.728658 0.026094
vt 0.728658 0.036265
vt 0.754226 0.031179
vt 0.723047 0.124717
vt 0.723047 0.124717
vt 0.723047 0.124717
vt 0.723047 0.124717
vt 0.723047 0.124717
vt 0.723047 0.124717
vt 0.723047 0.124717
vt 0.723047 0.124717
vt 0.723047 0.124717
vt 0.723047 0.124717
vt 0.723047 0.124717
vt 0.723047 0.124717
vt 0.723047 0.124717
vt 0.768709 0.009504
vt 0.759312 0.005612
vt 0.754226 0.031179
vt 0.739743 0.052854
vt 0.749141 0.056747
vt 0.754226 0.031179
vt 0.723047 0.124717
vt 0.723047 0.124717
vt 0.723047 0.124717
vt 0.723047 0.310618
vt 0.723047 0.310618
vt 0.723047 0.310618
vt 0.749140 0.005612
vt 0.754226 0.031179
vt 0.759312 0.056747
vt 0.754226 0.031179
vt 0.736404 0.297262
vt 0.744860 0.302913
vt 0.754837 0.278828
vt 0.736404 0.236101
vt 0.744861 0.241752
vt 0.754837 0.217668
vt 0.723047 0.124717
vt 0.723047 0.124717
vt 0.723047 0.124717
vt 0.754837 0.191599
vt 0.744861 0.193584
vt 0.754837 0.217668
vt 0.723047 0.124717
vt 0.723047 0.124717
vt 0.723047 0.124717
vt 0.723047 0.124717
vt 0.723047 0.124717
vt 0.723047 0.124717
vt 0.723047 0.124717
vt 0.723047 0.124717
vt 0.723047 0.124717
vt 0.723047 0.124717
vt 0.723047 0.124717
vt 0.723047 0.124717
vt 0.723047 0.124717
vt 0.730753 0.268852
vt 0.728768 0.278828
vt 0.754837 0.278828
vt 0.730753 0.207692
vt 0.728768 0.217668
vt 0.754837 0.217668
vt 0.723047 0.124717
vt 0.723047 0.124717
vt 0.723047 0.124717
vt 0.723047 0.124717
vt 0.723047 0.124717
vt 0.723047 0.124717
vt 0.730753 0.288804
vt 0.754837 0.278828
vt 0.730753 0.227644
vt 0.754837 0.217668
vt 0.540347 0.005612
vt 0.528888 0.005612
vt 0.528888 1.000000
vt 0.191230 0.994388
vt 0.202689 0.994388
vt 0.202689 0.000000
vt 0.552752 0.005612
vt 0.540347 1.000000
vt 0.178826 0.994388
vt 0.191230 0.000000
vt 0.564211 0.005612
vt 0.552752 1.000000
vt 0.167366 0.994388
vt 0.178826 0.000000
vt 0.114501 0.005612
vt 0.105730 0.005612
vt 0.105730 1.000000
vt 0.158595 0.994388
vt 0.167366 0.000000
vt 0.125961 0.005612
vt 0.114501 1.000000
vt 0.646318 0.005612
vt 0.634858 0.005612
vt 0.634858 1.000000
vt 0.138365 0.005612
vt 0.125961 1.000000
vt 0.658722 0.005612
vt 0.646318 1.000000
vt 0.149824 0.005612
vt 0.138365 1.000000
vt 0.670182 0.005612
vt 0.658722 1.000000
vt 0.158595 0.005612
vt 0.149824 1.000000
vt 0.061636 0.005612
vt 0.052865 0.005612
vt 0.052865 1.000000
vt 0.575671 0.005612
vt 0.564211 0.005612
vt 0.564211 1.000000
vt 0.073096 0.005612
vt 0.061636 1.000000
vt 0.085500 0.005612
vt 0.073096 1.000000
vt 0.096959 0.005612
vt 0.085500 1.000000
vt 0.105730 0.005612
vt 0.096959 1.000000
vt 0.610995 0.005612
vt 0.599535 0.005612
vt 0.599535 1.000000
vt 0.588075 0.005612
vt 0.575671 1.000000
vt 0.599535 0.005612
vt 0.588076 1.000000
vt 0.255554 0.994388
vt 0.264325 0.994388
vt 0.264325 0.000000
vt 0.244095 0.994388
vt 0.255555 0.000000
vt 0.231691 0.994388
vt 0.244095 0.000000
vt 0.623399 0.005612
vt 0.610995 1.000000
vt 0.220231 0.994388
vt 0.231691 0.000000
vt 0.634858 0.005612
vt 0.623399 1.000000
vt 0.211460 0.994388
vt 0.220231 0.000000
vt 0.211460 0.994388
vt 0.211460 0.000000
vt 0.622283 0.000000
vt 0.780658 0.013517
vt 0.775901 0.016696
vt 0.771888 0.004747
vt 0.760428 0.000000
vt 0.748024 0.000000
vt 0.736564 0.004747
vt 0.727794 0.013517
vt 0.723047 0.024978
vt 0.657606 0.000000
vt 0.727794 0.048841
vt 0.732551 0.045662
vt 0.736565 0.057612
vt 0.748024 0.062359
vt 0.760428 0.062358
vt 0.771888 0.057612
vt 0.780659 0.048841
vt 0.785405 0.037381
vt 0.586959 0.000000
vt 0.732358 0.256349
vt 0.736404 0.260395
vt 0.725467 0.266663
vt 0.723047 0.278828
vt 0.725467 0.290994
vt 0.732358 0.301307
vt 0.742671 0.308199
vt 0.754837 0.310618
vt 0.754837 0.304897
vt 0.551635 0.000000
vt 0.732358 0.195189
vt 0.736404 0.199235
vt 0.725467 0.205502
vt 0.723047 0.217668
vt 0.725467 0.229833
vt 0.732358 0.240147
vt 0.742671 0.247038
vt 0.754837 0.249458
vt 0.754837 0.243737
vt 0.723047 0.124717
vt 0.723047 0.124717
vt 0.723047 0.124717
vt 0.723047 0.124717
vt 0.754226 0.031179
vt 0.754226 0.031179
vt 0.723047 0.124717
vt 0.723047 0.310618
vt 0.723047 0.124717
vt 0.723047 0.124717
vt 0.723047 0.124717
vt 0.723047 0.124717
vt 0.754837 0.278828
vt 0.754837 0.217668
vt 0.564211 1.000000
vt 0.158595 0.000000
vt 0.670182 1.000000
vt 0.158595 1.000000
vt 0.105730 1.000000
vt 0.599535 1.000000
vt 0.634858 1.000000
vt 0.211460 0.000000
vt 0.785405 0.024977
vt 0.723047 0.037382
vt 0.074212 0.000000
vt 0.576787 0.000000
vt 0.742671 0.249458
vt 0.541464 0.000000
vt 0.742671 0.188298
vt 0.127077 0.000000
vn 0.0000 0.0000 1.0000
vn 0.0001 0.0000 1.0000
vn -0.0001 0.0000 1.0000
vn 0.0000 -1.0000 0.0000
vn -0.3827 -0.9239 0.0000
vn -1.0000 0.0000 0.0000
vn -0.9239 0.3827 0.0000
vn 0.3827 -0.9239 0.0000
vn -0.9239 -0.3827 0.0000
vn 0.7071 -0.7071 0.0000
vn -0.7071 -0.7071 0.0000
vn 0.9239 -0.3827 0.0000
vn 1.0000 -0.0000 0.0000
vn 0.9239 0.3827 0.0000
vn 0.7071 0.7071 0.0000
vn 0.3827 0.9239 0.0000
vn 0.0000 1.0000 0.0000
vn -0.3827 0.9239 0.0000
vn -0.7071 0.7071 0.0000
vn -0.0000 0.7002 0.7139
vn -0.2680 0.6469 0.7139
vn -0.4951 0.4951 0.7139
vn -0.6469 0.2679 0.7139
vn -0.6469 0.2680 0.7139
vn -0.7002 0.0000 0.7139
vn -0.6469 -0.2679 0.7139
vn -0.6469 -0.2680 0.7140
vn -0.4951 -0.4951 0.7139
vn -0.4951 -0.4952 0.7139
vn -0.2680 -0.6469 0.7139
vn -0.0000 -0.7002 0.7139
vn 0.2680 -0.6469 0.7139
vn 0.4951 -0.4951 0.7139
vn 0.4952 -0.4951 0.7139
vn 0.6469 -0.2680 0.7139
vn 0.7002 0.0000 0.7139
vn 0.6469 0.2680 0.7139
vn 0.6468 0.2680 0.7140
vn 0.4952 0.4951 0.7139
vn 0.2680 0.6469 0.7139
vn -0.6469 -0.2680 0.7139
vn -0.4951 -0.4951 0.7140
vn 0.6468 -0.2680 0.7140
usemtl Material.018
s 1
f 66/1/1 67/2/2 34/3/1
f 77/4/3 79/5/1 40/6/1
f 93/7/1 95/8/3 48/9/1
f 81/10/1 41/11/1 40/12/1
f 98/13/1 99/14/2 50/15/1
f 81/16/1 83/17/1 42/18/1
f 66/19/1 33/20/1 48/21/1
f 69/22/1 35/23/1 34/24/1
f 85/25/2 43/26/1 42/27/1
f 71/28/1 36/29/1 35/23/1
f 87/30/1 44/31/1 43/26/1
f 71/32/1 73/33/1 37/34/1
f 87/35/1 89/36/1 45/37/1
f 75/38/1 38/39/1 37/40/1
f 91/41/1 46/42/1 45/43/1
f 75/44/1 77/4/3 39/45/1
f 91/46/1 93/7/1 47/47/1
f 109/48/1 111/49/2 56/50/1
f 125/51/1 127/52/3 64/53/1
f 113/54/1 57/55/1 56/56/1
f 113/57/1 115/58/3 58/59/1
f 98/60/1 49/61/1 64/62/1
f 101/63/1 51/64/1 50/65/1
f 117/66/1 59/67/1 58/68/1
f 103/69/1 52/70/1 51/64/1
f 119/71/1 60/72/1 59/67/1
f 103/73/1 105/74/1 53/75/1
f 119/76/1 121/77/1 61/78/1
f 107/79/1 54/80/1 53/81/1
f 123/82/1 62/83/1 61/84/1
f 107/85/1 109/48/1 55/86/1
f 123/87/1 125/51/1 63/88/1
f 114/89/4 112/90/5 24/91/5
f 74/92/6 72/93/7 4/94/7
f 116/95/8 114/89/4 25/96/4
f 76/97/9 74/92/6 5/98/6
f 118/99/10 116/95/8 26/100/8
f 78/101/11 76/97/9 6/102/9
f 120/103/12 118/104/10 27/105/10
f 80/106/5 78/101/11 7/107/11
f 122/108/13 120/103/12 28/109/12
f 82/110/4 80/111/5 8/112/5
f 124/113/14 122/108/13 29/114/13
f 84/115/8 82/110/4 9/116/4
f 126/117/15 124/113/14 30/118/14
f 86/119/10 84/115/8 10/120/8
f 128/121/16 126/117/15 31/122/15
f 88/123/12 86/124/10 11/125/10
f 97/126/17 128/127/16 32/128/16
f 90/129/13 88/123/12 12/130/12
f 92/131/14 90/129/13 13/132/13
f 94/133/15 92/131/14 14/134/14
f 96/135/16 94/133/15 15/136/15
f 65/137/17 96/138/16 16/139/16
f 100/140/18 97/126/17 17/141/17
f 102/142/19 100/140/18 18/143/18
f 104/144/7 102/145/19 19/146/19
f 106/147/6 104/144/7 20/148/7
f 108/149/9 106/147/6 21/150/6
f 68/151/18 65/137/17 1/152/17
f 110/153/11 108/149/9 22/154/9
f 70/155/19 68/151/18 2/156/18
f 112/157/5 110/153/11 23/158/11
f 72/93/7 70/159/19 3/160/19
f 65/137/20 68/151/21 67/161/21
f 70/162/22 69/163/22 67/2/21
f 70/162/22 72/164/23 71/32/24
f 72/164/23 74/165/25 73/33/25
f 76/166/26 75/44/27 73/33/25
f 78/167/28 77/4/29 75/44/27
f 78/167/28 80/168/30 79/5/30
f 82/169/31 81/16/31 79/5/30
f 82/110/31 84/115/32 83/170/32
f 86/171/33 85/172/34 83/17/32
f 88/173/35 87/35/35 85/172/34
f 88/173/35 90/174/36 89/36/36
f 92/175/37 91/46/38 89/36/36
f 92/175/37 94/176/39 93/7/39
f 94/176/39 96/177/40 95/8/40
f 65/178/20 66/1/20 95/8/40
f 97/126/20 100/140/21 99/179/21
f 102/180/22 101/181/22 99/14/21
f 102/180/22 104/182/23 103/73/24
f 104/182/23 106/183/25 105/74/25
f 108/184/26 107/85/41 105/74/25
f 110/185/28 109/48/42 107/85/41
f 110/185/28 112/186/30 111/49/30
f 114/187/31 113/188/31 111/49/30
f 114/89/31 116/95/32 115/189/32
f 118/190/34 117/191/33 115/58/32
f 120/192/35 119/76/43 117/191/33
f 120/192/35 122/193/36 121/77/36
f 124/194/37 123/87/38 121/77/36
f 124/194/37 126/195/39 125/51/39
f 126/195/39 128/196/40 127/52/40
f 97/197/20 98/198/20 127/52/40
f 66/19/1 34/24/1 33/20/1
f 77/199/3 40/12/1 39/200/1
f 93/201/1 48/21/1 47/202/1
f 81/16/1 40/6/1 79/5/1
f 98/60/1 50/65/1 49/61/1
f 81/10/1 42/27/1 41/11/1
f 66/1/1 48/9/1 95/8/3
f 69/163/1 34/3/1 67/2/2
f 85/172/2 42/18/1 83/17/1
f 71/32/1 35/203/1 69/163/1
f 87/35/1 43/204/1 85/172/2
f 71/28/1 37/40/1 36/29/1
f 87/30/1 45/205/1 44/31/1
f 75/44/1 37/34/1 73/33/1
f 91/46/1 45/37/1 89/36/1
f 75/38/1 39/200/1 38/39/1
f 91/41/1 47/206/1 46/42/1
f 109/207/1 56/56/1 55/208/1
f 125/209/1 64/62/1 63/210/1
f 113/188/1 56/50/1 111/49/2
f 113/54/1 58/68/1 57/55/1
f 98/198/1 64/53/1 127/52/3
f 101/181/1 50/15/1 99/14/2
f 117/191/1 58/59/1 115/58/3
f 103/73/1 51/211/1 101/181/1
f 119/76/1 59/212/1 117/191/1
f 103/69/1 53/81/1 52/70/1
f 119/71/1 61/84/1 60/72/1
f 107/85/1 53/75/1 105/74/1
f 123/87/1 61/78/1 121/77/1
f 107/79/1 55/208/1 54/80/1
f 123/82/1 63/210/1 62/83/1
f 114/89/4 24/91/5 25/96/4
f 74/92/6 4/94/7 5/98/6
f 116/95/8 25/96/4 26/100/8
f 76/97/9 5/98/6 6/102/9
f 118/99/10 26/100/8 27/213/10
f 78/101/11 6/102/9 7/107/11
f 120/103/12 27/105/10 28/109/12
f 80/106/5 7/107/11 8/214/5
f 122/108/13 28/109/12 29/114/13
f 82/110/4 8/112/5 9/116/4
f 124/113/14 29/114/13 30/118/14
f 84/115/8 9/116/4 10/120/8
f 126/117/15 30/118/14 31/122/15
f 86/119/10 10/120/8 11/215/10
f 128/121/16 31/122/15 32/216/16
f 88/123/12 11/125/10 12/130/12
f 97/126/17 32/128/16 17/141/17
f 90/129/13 12/130/12 13/132/13
f 92/131/14 13/132/13 14/134/14
f 94/133/15 14/134/14 15/136/15
f 96/135/16 15/136/15 16/217/16
f 65/137/17 16/139/16 1/152/17
f 100/140/18 17/141/17 18/143/18
f 102/142/19 18/143/18 19/218/19
f 104/144/7 19/146/19 20/148/7
f 106/147/6 20/148/7 21/150/6
f 108/149/9 21/150/6 22/154/9
f 68/151/18 1/152/17 2/156/18
f 110/153/11 22/154/9 23/158/11
f 70/155/19 2/156/18 3/219/19
f 112/157/5 23/158/11 24/220/5
f 72/93/7 3/160/19 4/94/7
f 65/178/20 67/2/21 66/1/20
f 70/162/22 67/2/21 68/221/21
f 70/162/22 71/32/24 69/163/22
f 72/164/23 73/33/25 71/32/24
f 76/166/26 73/33/25 74/165/25
f 78/167/28 75/44/27 76/166/26
f 78/167/28 79/5/30 77/4/29
f 82/169/31 79/5/30 80/168/30
f 82/169/31 83/17/32 81/16/31
f 86/171/33 83/17/32 84/222/32
f 88/173/35 85/172/34 86/171/33
f 88/173/35 89/36/36 87/35/35
f 92/131/37 89/223/36 90/129/36
f 92/175/37 93/7/39 91/46/38
f 94/176/39 95/8/40 93/7/39
f 65/178/20 95/8/40 96/177/40
f 97/126/20 99/179/21 98/224/20
f 102/180/22 99/14/21 100/225/21
f 102/180/22 103/73/24 101/181/22
f 104/182/23 105/74/25 103/73/24
f 108/184/26 105/74/25 106/183/25
f 110/185/28 107/85/41 108/184/26
f 110/185/28 111/49/30 109/48/42
f 114/187/31 111/49/30 112/186/30
f 114/89/31 115/189/32 113/226/31
f 118/190/34 115/58/32 116/227/32
f 120/192/35 117/191/33 118/190/34
f 120/192/35 121/77/36 119/76/43
f 124/113/37 121/228/36 122/108/36
f 124/194/37 125/51/39 123/87/38
f 126/195/39 127/52/40 125/51/39
f 97/197/20 127/52/40 128/196/40
