# Blender v3.1.2 OBJ File: 'shelby_cobra2.blend'
# www.blender.org
mtllib Shelby_Cobra_pakubka.mtl
o palubka.000_Plane.031
v -0.136347 0.734063 0.062702
v -0.136347 0.714803 0.056500
v -0.136347 0.727643 0.060634
v -0.136347 0.721223 0.058567
v -0.417448 0.688695 0.048093
v -0.417448 0.707789 0.054241
v -0.417448 0.695059 0.050142
v -0.417448 0.701424 0.052192
v -0.147119 0.789363 0.080509
v -0.136347 0.780345 0.077605
v -0.141733 0.788537 0.080243
v -0.137790 0.785236 0.079180
v -0.286774 0.775249 0.075964
v -0.266947 0.777753 0.076770
v -0.280503 0.776148 0.076253
v -0.273246 0.777065 0.076548
v -0.417448 0.745088 0.066252
v -0.406961 0.756509 0.069929
v -0.416043 0.750200 0.067898
v -0.412205 0.754380 0.069244
v -0.136347 0.661778 0.039425
v -0.147120 0.652245 0.036356
v -0.137790 0.657012 0.037890
v -0.141734 0.653522 0.036767
v -0.266897 0.652245 0.036356
v -0.286898 0.652245 0.036356
v -0.273564 0.652245 0.036356
v -0.280231 0.652245 0.036356
v -0.406583 0.652245 0.036356
v -0.417448 0.661777 0.039425
v -0.412016 0.653522 0.036767
v -0.415993 0.657011 0.037890
v -0.173880 0.671432 0.140779
v -0.173880 0.690692 0.146981
v -0.173880 0.677852 0.142847
v -0.173880 0.684272 0.144914
v -0.377654 0.671623 0.140841
v -0.377654 0.652528 0.134692
v -0.377654 0.665258 0.138792
v -0.377654 0.658893 0.136742
v -0.173880 0.718825 0.156041
v -0.184652 0.727843 0.158944
v -0.175323 0.723716 0.157616
v -0.179266 0.727017 0.158678
v -0.265816 0.719979 0.156412
v -0.285643 0.717475 0.155606
v -0.272115 0.719291 0.156191
v -0.279372 0.718374 0.155895
v -0.367167 0.704764 0.151513
v -0.377654 0.693343 0.147835
v -0.372410 0.702635 0.150827
v -0.376249 0.698455 0.149481
v -0.184653 0.628732 0.127030
v -0.173880 0.638265 0.130099
v -0.179267 0.630009 0.127441
v -0.175323 0.633498 0.128565
v -0.285768 0.628732 0.127030
v -0.265766 0.628732 0.127030
v -0.279101 0.628732 0.127030
v -0.272433 0.628732 0.127030
v -0.377654 0.638264 0.130099
v -0.366789 0.628732 0.127030
v -0.376198 0.633498 0.128565
v -0.372221 0.630009 0.127441
v -0.139131 0.734405 0.061638
v -0.139131 0.715145 0.055436
v -0.139131 0.727985 0.059571
v -0.139131 0.721565 0.057503
v -0.414688 0.689055 0.046975
v -0.414688 0.708149 0.053123
v -0.414688 0.695420 0.049024
v -0.414688 0.701784 0.051074
v -0.147278 0.787043 0.078613
v -0.139043 0.780312 0.076289
v -0.142941 0.786687 0.078213
v -0.140007 0.784302 0.077387
v -0.286331 0.772850 0.074217
v -0.266640 0.775339 0.075015
v -0.280103 0.773744 0.074504
v -0.272896 0.774655 0.074796
v -0.414748 0.745103 0.064944
v -0.406117 0.754282 0.068105
v -0.413674 0.749405 0.066238
v -0.410557 0.752706 0.067378
v -0.139100 0.662494 0.038471
v -0.147567 0.655157 0.036926
v -0.140216 0.658681 0.037319
v -0.143234 0.656120 0.036819
v -0.266897 0.655149 0.037109
v -0.286898 0.655149 0.037109
v -0.273564 0.655149 0.037109
v -0.280231 0.655149 0.037109
v -0.406136 0.655159 0.036915
v -0.414719 0.662510 0.038417
v -0.410521 0.656124 0.036786
v -0.413585 0.658691 0.037269
v -0.176664 0.671774 0.139716
v -0.176664 0.691034 0.145918
v -0.176664 0.678194 0.141783
v -0.176664 0.684614 0.143850
v -0.374893 0.671983 0.139723
v -0.374893 0.652888 0.133574
v -0.374893 0.665618 0.137673
v -0.374893 0.659253 0.135624
v -0.176609 0.718904 0.154797
v -0.184649 0.725482 0.157094
v -0.177588 0.722847 0.155850
v -0.180323 0.725076 0.156650
v -0.265509 0.717566 0.154657
v -0.285199 0.715077 0.153860
v -0.271764 0.716882 0.154438
v -0.278971 0.715971 0.154146
v -0.366445 0.702477 0.149710
v -0.374937 0.693430 0.146565
v -0.370866 0.700872 0.148955
v -0.373870 0.697677 0.147828
v -0.184930 0.631650 0.127672
v -0.176633 0.638980 0.129145
v -0.180527 0.632726 0.127624
v -0.177680 0.635283 0.128052
v -0.285768 0.631636 0.127783
v -0.265766 0.631636 0.127783
v -0.279101 0.631636 0.127783
v -0.272433 0.631636 0.127783
v -0.374925 0.638998 0.129092
v -0.366519 0.631651 0.127668
v -0.373865 0.635300 0.128008
v -0.370980 0.632735 0.127603
vt 0.067086 0.832872
vt 0.049266 0.832872
vt 0.047295 0.832872
vt 0.031292 0.729711
vt 0.040906 0.821451
vt 0.031602 0.732670
vt 0.091500 0.610958
vt 0.065304 0.610958
vt 0.089580 0.610958
vt 0.096558 0.729810
vt 0.096558 0.821040
vt 0.096558 0.824295
vt 0.029963 0.714059
vt 0.024013 0.622688
vt 0.023803 0.619461
vt 0.096558 0.714020
vt 0.096558 0.622689
vt 0.096558 0.711024
vt 0.091500 0.832872
vt 0.079140 0.832872
vt 0.077218 0.832872
vt 0.051207 0.610958
vt 0.056552 0.610958
vt 0.053145 0.610958
vt 0.055906 0.610958
vt 0.059958 0.610958
vt 0.060605 0.610958
vt 0.063365 0.610958
vt 0.096558 0.619462
vt 0.096558 0.616803
vt 0.096558 0.615190
vt 0.093059 0.610958
vt 0.094024 0.610958
vt 0.030888 0.725857
vt 0.030774 0.724772
vt 0.030216 0.717943
vt 0.030287 0.719035
vt 0.029769 0.711078
vt 0.028588 0.610958
vt 0.026944 0.610958
vt 0.030614 0.610958
vt 0.023526 0.615203
vt 0.023634 0.616858
vt 0.096558 0.732806
vt 0.096558 0.724546
vt 0.096558 0.725545
vt 0.096558 0.719283
vt 0.096558 0.718284
vt 0.096558 0.826978
vt 0.096558 0.828605
vt 0.093067 0.832872
vt 0.094029 0.832872
vt 0.089581 0.832872
vt 0.065164 0.832872
vt 0.070463 0.832872
vt 0.069823 0.832872
vt 0.073841 0.832872
vt 0.074481 0.832872
vt 0.045464 0.832872
vt 0.044530 0.832872
vt 0.041697 0.828999
vt 0.041539 0.827493
vt 0.041235 0.824593
vt 0.049266 0.832872
vt 0.067086 0.832872
vt 0.047295 0.832872
vt 0.031292 0.729711
vt 0.040906 0.821451
vt 0.041235 0.824593
vt 0.091500 0.610958
vt 0.065304 0.610958
vt 0.063365 0.610958
vt 0.096558 0.821040
vt 0.096558 0.729810
vt 0.096558 0.824295
vt 0.024013 0.622688
vt 0.029963 0.714059
vt 0.023803 0.619461
vt 0.096558 0.714020
vt 0.096558 0.622689
vt 0.096558 0.619462
vt 0.079140 0.832872
vt 0.091500 0.832872
vt 0.077218 0.832872
vt 0.056552 0.610958
vt 0.051207 0.610958
vt 0.053145 0.610958
vt 0.059958 0.610958
vt 0.055906 0.610958
vt 0.060605 0.610958
vt 0.096558 0.616803
vt 0.093059 0.610958
vt 0.096558 0.615190
vt 0.089580 0.610958
vt 0.094024 0.610958
vt 0.030888 0.725857
vt 0.031602 0.732670
vt 0.030774 0.724772
vt 0.030216 0.717943
vt 0.030287 0.719035
vt 0.029769 0.711078
vt 0.026944 0.610958
vt 0.028588 0.610958
vt 0.030614 0.610958
vt 0.023526 0.615203
vt 0.025913 0.610958
vt 0.023634 0.616858
vt 0.096558 0.732806
vt 0.096558 0.724546
vt 0.096558 0.725545
vt 0.096558 0.719283
vt 0.096558 0.718284
vt 0.096558 0.826978
vt 0.096558 0.828605
vt 0.093067 0.832872
vt 0.094029 0.832872
vt 0.089581 0.832872
vt 0.065164 0.832872
vt 0.070463 0.832872
vt 0.069823 0.832872
vt 0.073841 0.832872
vt 0.074481 0.832872
vt 0.045464 0.832872
vt 0.041697 0.828999
vt 0.044530 0.832872
vt 0.041539 0.827493
vt 0.025913 0.610958
vt 0.096558 0.711024
vn -0.9202 -0.1200 0.3727
vn -0.9055 -0.0290 0.4233
vn -0.9000 -0.0051 0.4358
vn -0.1476 0.7996 0.5821
vn -0.2405 0.7623 0.6008
vn -0.1478 0.7996 0.5821
vn 0.9176 -0.2386 0.3179
vn 0.9280 -0.1142 0.3545
vn 0.9176 -0.2385 0.3180
vn 0.0000 -0.9680 -0.2510
vn -0.0901 -0.9729 -0.2128
vn -0.1491 -0.9711 -0.1864
vn -0.1023 0.8045 0.5851
vn -0.0010 0.7871 0.6168
vn 0.0530 0.7733 0.6319
vn 0.0924 -0.9725 -0.2139
vn -0.9097 -0.2441 0.3359
vn 0.1489 -0.9704 -0.1900
vn 0.4201 -0.9054 -0.0609
vn 0.5002 -0.8658 -0.0175
vn 0.7855 -0.5947 0.1709
vn 0.8087 -0.5566 0.1904
vn -0.1335 0.8013 0.5832
vn -0.1332 0.8013 0.5832
vn -0.1169 0.8031 0.5842
vn -0.1166 0.8031 0.5843
vn -0.1024 0.8045 0.5851
vn 0.8986 0.0109 0.4386
vn 0.7548 0.2898 0.5885
vn 0.9096 -0.0264 0.4146
vn 0.4028 0.6167 0.6764
vn 0.3523 0.6471 0.6761
vn -0.4140 -0.9087 -0.0540
vn -0.4981 -0.8671 -0.0062
vn -0.7777 -0.6007 0.1855
vn -0.8024 -0.5597 0.2070
vn -0.9096 -0.2445 0.3358
vn -0.7931 0.2592 0.5512
vn -0.7897 0.2650 0.5533
vn -0.5492 0.5582 0.6219
vn -0.5148 0.5879 0.6240
vn -0.2814 0.7423 0.6081
vn 0.9065 0.0335 -0.4209
vn 0.9202 0.1203 -0.3726
vn 0.9012 0.0100 -0.4333
vn 0.1475 -0.7996 -0.5822
vn 0.2366 -0.7641 -0.6001
vn 0.2749 -0.7455 -0.6072
vn -0.9186 0.2316 -0.3202
vn -0.9280 0.1138 -0.3546
vn -0.9280 0.1140 -0.3546
vn 0.0838 0.9729 0.2155
vn -0.0001 0.9680 0.2510
vn 0.1331 0.9721 0.1929
vn 0.0084 -0.7887 -0.6147
vn 0.1024 -0.8045 -0.5851
vn -0.0398 -0.7766 -0.6287
vn 0.0001 0.9680 0.2510
vn -0.0860 0.9725 0.2165
vn -0.1333 0.9715 0.1961
vn 0.9202 0.1192 -0.3729
vn 0.9107 0.2370 -0.3383
vn 0.9201 0.1196 -0.3729
vn -0.9280 0.1142 -0.3545
vn -0.9281 0.1144 -0.3544
vn -0.9281 0.1145 -0.3544
vn -0.2326 0.9605 0.1530
vn -0.6592 0.7479 -0.0781
vn -0.6397 0.7657 -0.0666
vn -0.6596 0.7475 -0.0783
vn -0.9192 0.2279 -0.3212
vn -0.8950 0.3467 -0.2806
vn -0.8975 0.3380 -0.2834
vn 0.1335 -0.8013 -0.5832
vn 0.1478 -0.7996 -0.5821
vn 0.1332 -0.8013 -0.5832
vn 0.1169 -0.8031 -0.5842
vn 0.1166 -0.8031 -0.5843
vn 0.1025 -0.8045 -0.5850
vn -0.8706 -0.0865 -0.4843
vn -0.9016 -0.0012 -0.4326
vn -0.9115 0.0335 -0.4099
vn -0.5830 -0.4804 -0.6552
vn -0.5786 -0.4842 -0.6564
vn -0.5785 -0.4843 -0.6564
vn -0.1366 -0.7468 -0.6509
vn -0.1215 -0.7516 -0.6483
vn 0.0000 0.9680 0.2510
vn 0.2311 0.9616 0.1482
vn 0.6333 0.7699 -0.0787
vn 0.6539 0.7510 -0.0913
vn 0.6543 0.7506 -0.0916
vn 0.8871 0.3526 -0.2979
vn 0.9113 0.2333 -0.3392
vn 0.8897 0.3432 -0.3010
vn 0.9202 0.1200 -0.3727
vn 0.7958 -0.2545 -0.5494
vn 0.5474 -0.5597 -0.6221
vn 0.7914 -0.2621 -0.5523
vn 0.5101 -0.5919 -0.6240
vn 0.3725 0.2845 -0.8834
vn 0.3725 0.2830 -0.8838
vn 0.3734 0.2829 -0.8835
vn -0.3735 -0.2827 0.8835
vn -0.3725 -0.2845 0.8834
vn 0.3726 0.2846 -0.8833
vn -0.3725 -0.2847 0.8833
vn -0.3727 -0.2847 0.8832
vn 0.0090 -0.1907 0.9816
vn -0.0945 -0.1054 0.9899
vn 0.0313 -0.2123 0.9767
vn -0.0090 0.1637 -0.9865
vn 0.0602 0.0865 -0.9944
vn 0.1136 0.0574 -0.9919
vn -0.2590 -0.1125 0.9593
vn -0.1034 -0.1145 0.9880
vn 0.2782 0.1145 -0.9537
vn 0.3003 0.1123 -0.9472
vn -0.3675 -0.2312 0.9008
vn -0.2719 -0.0758 0.9593
vn 0.3682 0.2316 -0.9005
vn 0.3711 0.2279 -0.9002
vn -0.0476 0.5825 -0.8114
vn -0.0435 0.5831 -0.8113
vn -0.0475 0.5822 -0.8117
vn 0.0476 -0.5825 0.8114
vn 0.0435 -0.5831 0.8112
vn 0.0434 -0.5832 0.8112
vn -0.0435 0.5832 -0.8112
vn -0.0381 0.5842 -0.8107
vn 0.0381 -0.5842 0.8107
vn 0.0382 -0.5842 0.8107
vn -0.0343 0.5853 -0.8101
vn 0.0342 -0.5853 0.8101
vn 0.0342 -0.5850 0.8103
vn -0.4160 -0.3169 0.8524
vn -0.3821 -0.5103 0.7704
vn -0.4014 -0.3044 0.8638
vn 0.4272 0.3183 -0.8463
vn 0.3878 0.4990 -0.7750
vn 0.4003 0.5107 -0.7609
vn -0.3924 -0.5105 0.7651
vn -0.1791 -0.6503 0.7383
vn 0.1937 0.6689 -0.7177
vn 0.1680 0.6585 -0.7336
vn 0.0111 -0.6337 0.7735
vn -0.1881 -0.6587 0.7285
vn -0.0100 0.6503 -0.7596
vn -0.0285 0.6333 -0.7733
vn -0.0007 -0.2506 0.9681
vn 0.0000 -0.2510 0.9680
vn -0.0007 -0.2510 0.9680
vn 0.0008 0.2505 -0.9681
vn 0.0000 0.2510 -0.9680
vn 0.0007 -0.2506 0.9681
vn -0.0008 0.2510 -0.9680
vn -0.0007 0.2506 -0.9681
vn 0.0099 0.1585 -0.9873
vn -0.0619 0.0758 -0.9952
vn 0.0331 0.1839 -0.9824
vn -0.0098 -0.1886 0.9820
vn 0.0974 -0.0973 0.9905
vn 0.1063 -0.1071 0.9885
vn -0.1177 0.0449 -0.9920
vn -0.2909 0.1032 -0.9512
vn 0.2696 -0.1018 0.9576
vn 0.2835 -0.0630 0.9569
vn -0.3863 0.2260 -0.8943
vn -0.3141 0.1011 -0.9440
vn 0.3855 -0.2255 0.8947
vn 0.3891 -0.2209 0.8943
vn 0.3925 -0.2805 0.8759
vn 0.3916 -0.2820 0.8759
vn 0.3916 -0.2805 0.8764
vn -0.3922 0.2809 -0.8759
vn -0.3916 0.2820 -0.8759
vn 0.3920 -0.2826 0.8755
vn -0.3916 0.2824 -0.8758
vn -0.3918 0.2823 -0.8757
vn -0.4208 0.3224 -0.8480
vn -0.3842 0.4684 -0.7956
vn -0.4142 0.3164 -0.8534
vn 0.4166 -0.3214 0.8504
vn 0.3832 -0.4778 0.7905
vn 0.3859 -0.4757 0.7904
vn -0.2471 0.6077 -0.7547
vn -0.3936 0.4730 -0.7883
vn 0.2343 -0.5956 0.7683
vn 0.2421 -0.5985 0.7636
vn -0.0877 0.6238 -0.7767
vn -0.2262 0.6028 -0.7652
vn 0.0832 -0.6129 0.7858
vn 0.0687 -0.6038 0.7942
vn 0.4138 0.3052 -0.8577
vn -0.3725 -0.2827 0.8839
vn 0.3725 0.2846 -0.8833
vn -0.3709 -0.2271 0.9005
vn -0.3915 0.2809 -0.8762
vn 0.4091 -0.3162 0.8559
vn -0.3894 0.2219 -0.8939
vn 0.3915 -0.2827 0.8757
vn -0.0343 0.5849 -0.8104
vn 0.0289 -0.6162 0.7870
vn -0.0724 0.6152 -0.7851
vn 0.0475 -0.5822 0.8117
vn -0.0315 0.1879 -0.9817
vn 0.0007 -0.2510 0.9680
vn 0.0008 0.2510 -0.9680
vn -0.0329 -0.2110 0.9769
vn 0.7389 0.3112 0.5977
vn -0.2103 0.9641 0.1620
vn -0.6393 0.7661 -0.0664
vn -0.8736 -0.0789 -0.4802
vn -0.5831 -0.4804 -0.6552
vn 0.2078 0.9653 0.1581
vn 0.6329 0.7702 -0.0785
usemtl Material.009
s 1
f 6/1/1 50/2/2 17/3/3
f 13/4/4 49/5/5 46/6/6
f 21/7/7 33/8/8 54/9/9
f 26/10/10 62/11/11 29/12/12
f 14/13/13 42/14/14 9/15/15
f 25/16/10 53/17/16 58/18/10
f 30/19/17 38/20/1 5/21/1
f 34/22/8 3/23/8 1/24/8
f 36/25/8 4/26/8 3/23/8
f 35/27/8 2/28/8 4/26/8
f 22/29/18 55/30/19 53/17/16
f 24/31/20 56/32/21 55/30/19
f 23/33/22 54/9/9 56/32/21
f 13/4/4 48/34/23 15/35/24
f 15/35/24 47/36/25 16/37/26
f 16/37/26 45/38/27 14/13/13
f 10/39/28 43/40/29 41/41/30
f 43/40/29 11/42/31 44/43/32
f 44/43/32 9/15/15 42/14/14
f 57/44/10 28/45/10 59/46/10
f 59/46/10 27/47/10 60/48/10
f 60/48/10 25/16/10 58/18/10
f 29/12/12 64/49/33 31/50/34
f 31/50/34 63/51/35 32/52/36
f 32/52/36 61/53/37 30/19/17
f 37/54/1 8/55/1 39/56/1
f 39/56/1 7/57/1 40/58/1
f 40/58/1 5/21/1 38/20/1
f 17/3/3 52/59/38 19/60/39
f 52/59/38 20/61/40 19/60/39
f 51/62/41 18/63/42 20/61/40
f 1/24/8 41/41/30 34/22/8
f 114/64/43 70/65/44 81/66/45
f 77/67/46 113/68/47 82/69/48
f 85/70/49 97/71/50 66/72/51
f 126/73/52 90/74/53 93/75/54
f 106/76/55 78/77/56 73/78/57
f 89/79/58 117/80/59 86/81/60
f 102/82/61 94/83/62 69/84/63
f 67/85/64 98/86/65 65/87/66
f 68/88/64 100/89/64 67/85/64
f 66/72/51 99/90/64 68/88/64
f 119/91/67 86/81/60 117/80/59
f 120/92/68 88/93/69 119/91/70
f 118/94/71 87/95/72 120/92/73
f 77/67/46 112/96/74 110/97/75
f 79/98/76 111/99/77 112/96/74
f 80/100/78 109/101/79 111/99/77
f 107/102/80 74/103/81 105/104/82
f 107/102/83 75/105/84 76/106/85
f 108/107/86 73/78/57 75/105/87
f 121/108/53 92/109/88 90/74/53
f 123/110/88 91/111/88 92/109/88
f 124/112/88 89/79/58 91/111/88
f 93/75/54 128/113/89 126/73/52
f 95/114/90 127/115/91 128/113/92
f 96/116/93 125/117/94 127/115/95
f 101/118/44 72/119/96 70/65/44
f 103/120/96 71/121/96 72/119/96
f 104/122/96 69/84/63 71/121/96
f 81/66/45 116/123/97 114/64/43
f 84/124/98 116/123/97 83/125/99
f 82/69/48 115/126/100 84/124/98
f 65/87/66 105/104/82 74/103/81
f 3/23/101 65/87/102 1/24/103
f 34/22/104 100/89/105 36/25/105
f 3/23/101 68/88/101 67/85/101
f 35/27/105 100/89/105 99/90/105
f 2/28/106 68/88/101 4/26/101
f 35/27/105 97/71/107 33/8/108
f 53/17/109 119/91/110 117/80/111
f 22/29/112 88/93/113 24/31/114
f 56/32/115 119/91/110 55/30/116
f 24/31/114 87/95/117 23/33/118
f 54/9/119 120/92/120 56/32/115
f 21/7/121 87/95/117 85/70/122
f 13/4/123 79/98/124 77/67/125
f 46/6/126 112/96/127 48/34/128
f 15/35/129 80/100/130 79/98/124
f 47/36/131 112/96/127 111/99/132
f 14/13/133 80/100/130 16/37/130
f 45/38/134 111/99/132 109/101/135
f 41/41/136 107/102/137 105/104/138
f 10/39/139 76/106/140 12/127/141
f 43/40/142 108/107/143 107/102/137
f 11/42/144 76/106/140 75/105/145
f 42/14/146 108/107/143 44/43/147
f 9/15/148 75/105/145 73/78/149
f 57/44/150 123/110/151 121/108/152
f 26/10/153 92/109/154 28/45/154
f 59/46/151 124/112/151 123/110/151
f 27/47/154 92/109/154 91/111/154
f 58/18/155 124/112/151 60/48/151
f 27/47/154 89/79/156 25/16/157
f 29/12/158 95/114/159 93/75/160
f 62/11/161 128/113/162 64/49/163
f 31/50/164 96/116/165 95/114/159
f 63/51/166 128/113/162 127/115/167
f 30/19/168 96/116/165 32/52/169
f 61/53/170 127/115/167 125/117/171
f 37/54/172 103/120/173 101/118/174
f 6/1/175 72/119/176 8/55/176
f 39/56/173 104/122/173 103/120/173
f 8/55/176 71/121/176 7/57/176
f 38/20/177 104/122/173 40/58/173
f 7/57/176 69/84/178 5/21/179
f 17/3/180 83/125/181 81/66/182
f 50/2/183 116/123/184 52/59/185
f 20/61/186 83/125/181 19/60/187
f 52/59/185 115/126/188 51/62/189
f 18/63/190 84/124/191 20/61/186
f 49/5/192 115/126/188 113/68/193
f 1/24/103 74/103/194 10/39/139
f 34/22/104 105/104/138 98/86/195
f 2/28/106 85/70/122 66/72/196
f 33/8/108 118/94/197 54/9/119
f 6/1/175 81/66/182 70/65/198
f 37/54/172 114/64/199 50/2/183
f 5/21/179 94/83/200 30/19/168
f 38/20/177 125/117/171 102/82/201
f 14/13/133 73/78/149 78/77/202
f 45/38/134 106/76/203 42/14/146
f 13/4/123 82/69/204 18/63/190
f 46/6/126 113/68/193 110/97/205
f 25/16/157 86/81/206 22/29/112
f 58/18/155 117/80/111 122/128/207
f 26/10/153 93/75/160 90/74/208
f 57/44/150 126/73/209 62/11/161
f 6/1/1 37/54/1 50/2/2
f 13/4/4 18/63/42 49/5/5
f 21/7/7 2/28/8 33/8/8
f 26/10/10 57/44/10 62/11/11
f 14/13/13 45/38/27 42/14/14
f 25/16/10 22/29/18 53/17/16
f 30/19/17 61/53/37 38/20/1
f 34/22/8 36/25/8 3/23/8
f 36/25/8 35/27/8 4/26/8
f 35/27/8 33/8/8 2/28/8
f 22/29/18 24/31/20 55/30/19
f 24/31/20 23/33/22 56/32/21
f 23/33/22 21/7/7 54/9/9
f 13/4/4 46/6/6 48/34/23
f 15/35/24 48/34/23 47/36/25
f 16/37/26 47/36/25 45/38/27
f 10/39/28 12/127/210 43/40/29
f 43/40/29 12/127/210 11/42/31
f 44/43/32 11/42/31 9/15/15
f 57/44/10 26/10/10 28/45/10
f 59/46/10 28/45/10 27/47/10
f 60/48/10 27/47/10 25/16/10
f 29/12/12 62/11/11 64/49/33
f 31/50/34 64/49/33 63/51/35
f 32/52/36 63/51/35 61/53/37
f 37/54/1 6/1/1 8/55/1
f 39/56/1 8/55/1 7/57/1
f 40/58/1 7/57/1 5/21/1
f 17/3/3 50/2/2 52/59/38
f 52/59/38 51/62/41 20/61/40
f 51/62/41 49/5/5 18/63/42
f 1/24/8 10/39/28 41/41/30
f 114/64/43 101/118/44 70/65/44
f 77/67/46 110/97/75 113/68/47
f 85/70/49 118/94/71 97/71/50
f 126/73/52 121/108/53 90/74/53
f 106/76/55 109/101/79 78/77/56
f 89/79/58 122/128/58 117/80/59
f 102/82/61 125/117/94 94/83/62
f 67/85/64 100/89/64 98/86/65
f 68/88/64 99/90/64 100/89/64
f 66/72/51 97/71/50 99/90/64
f 119/91/67 88/93/211 86/81/60
f 120/92/68 87/95/212 88/93/69
f 118/94/71 85/70/49 87/95/72
f 77/67/46 79/98/76 112/96/74
f 79/98/76 80/100/78 111/99/77
f 80/100/78 78/77/56 109/101/79
f 107/102/80 76/106/213 74/103/81
f 107/102/83 108/107/214 75/105/84
f 108/107/86 106/76/55 73/78/57
f 121/108/53 123/110/88 92/109/88
f 123/110/88 124/112/88 91/111/88
f 124/112/88 122/128/58 89/79/58
f 93/75/54 95/114/215 128/113/89
f 95/114/90 96/116/216 127/115/91
f 96/116/93 94/83/62 125/117/94
f 101/118/44 103/120/96 72/119/96
f 103/120/96 104/122/96 71/121/96
f 104/122/96 102/82/61 69/84/63
f 81/66/45 83/125/99 116/123/97
f 84/124/98 115/126/100 116/123/97
f 82/69/48 113/68/47 115/126/100
f 65/87/66 98/86/65 105/104/82
f 3/23/101 67/85/101 65/87/102
f 34/22/104 98/86/195 100/89/105
f 3/23/101 4/26/101 68/88/101
f 35/27/105 36/25/105 100/89/105
f 2/28/106 66/72/196 68/88/101
f 35/27/105 99/90/105 97/71/107
f 53/17/109 55/30/116 119/91/110
f 22/29/112 86/81/206 88/93/113
f 56/32/115 120/92/120 119/91/110
f 24/31/114 88/93/113 87/95/117
f 54/9/119 118/94/197 120/92/120
f 21/7/121 23/33/118 87/95/117
f 13/4/123 15/35/129 79/98/124
f 46/6/126 110/97/205 112/96/127
f 15/35/129 16/37/130 80/100/130
f 47/36/131 48/34/128 112/96/127
f 14/13/133 78/77/202 80/100/130
f 45/38/134 47/36/131 111/99/132
f 41/41/136 43/40/142 107/102/137
f 10/39/139 74/103/194 76/106/140
f 43/40/142 44/43/147 108/107/143
f 11/42/144 12/127/141 76/106/140
f 42/14/146 106/76/203 108/107/143
f 9/15/148 11/42/144 75/105/145
f 57/44/150 59/46/151 123/110/151
f 26/10/153 90/74/208 92/109/154
f 59/46/151 60/48/151 124/112/151
f 27/47/154 28/45/154 92/109/154
f 58/18/155 122/128/207 124/112/151
f 27/47/154 91/111/154 89/79/156
f 29/12/158 31/50/164 95/114/159
f 62/11/161 126/73/209 128/113/162
f 31/50/164 32/52/169 96/116/165
f 63/51/166 64/49/163 128/113/162
f 30/19/168 94/83/200 96/116/165
f 61/53/170 63/51/166 127/115/167
f 37/54/172 39/56/173 103/120/173
f 6/1/175 70/65/198 72/119/176
f 39/56/173 40/58/173 104/122/173
f 8/55/176 72/119/176 71/121/176
f 38/20/177 102/82/201 104/122/173
f 7/57/176 71/121/176 69/84/178
f 17/3/180 19/60/187 83/125/181
f 50/2/183 114/64/199 116/123/184
f 20/61/186 84/124/191 83/125/181
f 52/59/185 116/123/184 115/126/188
f 18/63/190 82/69/204 84/124/191
f 49/5/192 51/62/189 115/126/188
f 1/24/103 65/87/102 74/103/194
f 34/22/104 41/41/136 105/104/138
f 2/28/106 21/7/121 85/70/122
f 33/8/108 97/71/107 118/94/197
f 6/1/175 17/3/180 81/66/182
f 37/54/172 101/118/174 114/64/199
f 5/21/179 69/84/178 94/83/200
f 38/20/177 61/53/170 125/117/171
f 14/13/133 9/15/148 73/78/149
f 45/38/134 109/101/135 106/76/203
f 13/4/123 77/67/125 82/69/204
f 46/6/126 49/5/192 113/68/193
f 25/16/157 89/79/156 86/81/206
f 58/18/155 53/17/109 117/80/111
f 26/10/153 29/12/158 93/75/160
f 57/44/150 121/108/152 126/73/209
