# Blender v3.1.2 OBJ File: 'shelby_cobra2.blend'
# www.blender.org
mtllib Shelby_Cobra_front_blinkers_left_gum.mtl
o Shelby_Cobra_front_blinker_left_gum_Circle.032
v 0.582750 0.399339 1.735234
v 0.568239 0.396452 1.735234
v 0.555937 0.388232 1.735234
v 0.547717 0.375930 1.735234
v 0.544830 0.361418 1.735234
v 0.547717 0.346907 1.735234
v 0.555937 0.334605 1.735234
v 0.568239 0.326385 1.735234
v 0.582750 0.323498 1.735234
v 0.597262 0.326385 1.735234
v 0.609564 0.334605 1.735234
v 0.617784 0.346907 1.735234
v 0.620671 0.361418 1.735234
v 0.617784 0.375930 1.735234
v 0.609564 0.388232 1.735234
v 0.597262 0.396452 1.735234
v 0.582750 0.405051 1.717698
v 0.566053 0.401730 1.717698
v 0.551897 0.392271 1.717698
v 0.542439 0.378116 1.717698
v 0.539118 0.361418 1.717698
v 0.542439 0.344721 1.717698
v 0.551897 0.330565 1.717698
v 0.566053 0.321107 1.717698
v 0.582750 0.317786 1.717698
v 0.599448 0.321107 1.717698
v 0.613603 0.330565 1.717698
v 0.623062 0.344721 1.717698
v 0.626383 0.361418 1.717698
v 0.623062 0.378116 1.717698
v 0.613603 0.392271 1.717698
v 0.599448 0.401730 1.717698
v 0.575353 0.398608 1.735234
v 0.561684 0.392946 1.735234
v 0.551223 0.382484 1.735234
v 0.545561 0.368816 1.735234
v 0.545561 0.354021 1.735234
v 0.551223 0.340352 1.735234
v 0.561684 0.329891 1.735234
v 0.575353 0.324229 1.735234
v 0.590148 0.324229 1.735234
v 0.603816 0.329891 1.735234
v 0.614278 0.340352 1.735234
v 0.619940 0.354021 1.735234
v 0.619940 0.368816 1.735234
v 0.614278 0.382484 1.735234
v 0.603816 0.392946 1.735234
v 0.590148 0.398608 1.735234
v 0.574239 0.404210 1.717698
v 0.558511 0.397695 1.717698
v 0.546473 0.385658 1.717698
v 0.539959 0.369930 1.717698
v 0.539959 0.352906 1.717698
v 0.546473 0.337179 1.717698
v 0.558511 0.325141 1.717698
v 0.574239 0.318627 1.717698
v 0.591262 0.318627 1.717698
v 0.606990 0.325141 1.717698
v 0.619027 0.337179 1.717698
v 0.625542 0.352906 1.717698
v 0.625542 0.369930 1.717698
v 0.619027 0.385658 1.717698
v 0.606990 0.397695 1.717698
v 0.591262 0.404210 1.717698
v 0.620423 0.377023 1.726466
v 0.611584 0.390252 1.726466
v 0.553917 0.332585 1.726466
v 0.567146 0.323746 1.726466
v 0.598355 0.399091 1.726466
v 0.582750 0.320642 1.726466
v 0.582750 0.402195 1.726466
v 0.567146 0.399091 1.726466
v 0.598355 0.323746 1.726466
v 0.553917 0.390252 1.726466
v 0.611584 0.332585 1.726466
v 0.545078 0.377023 1.726466
v 0.620423 0.345814 1.726466
v 0.541974 0.361418 1.726466
v 0.623527 0.361418 1.726466
v 0.545078 0.345814 1.726466
v 0.616653 0.384071 1.726466
v 0.560098 0.327516 1.726466
v 0.605403 0.395321 1.726466
v 0.574796 0.321428 1.726466
v 0.574796 0.401409 1.726466
v 0.590705 0.401409 1.726466
v 0.590705 0.321428 1.726466
v 0.560098 0.395321 1.726466
v 0.605403 0.327516 1.726466
v 0.548848 0.384071 1.726466
v 0.616653 0.338766 1.726466
v 0.542760 0.369373 1.726466
v 0.622741 0.353464 1.726466
v 0.542760 0.353464 1.726466
v 0.622741 0.369373 1.726466
v 0.548848 0.338766 1.726466
vt 0.250000 0.047547
vt 0.129959 0.098295
vt 0.148988 0.023774
vt 0.219141 0.194038
vt 0.232304 0.116849
vt 0.115805 0.181298
vt 0.027615 0.079742
vt 0.047977 0.000000
vt 0.469141 0.520527
vt 0.379959 0.607953
vt 0.365805 0.532379
vt 0.500000 0.650820
vt 0.482304 0.590807
vt 0.398988 0.672487
vt 0.277615 0.625099
vt 0.262469 0.544232
vt 0.969141 0.520527
vt 0.879959 0.607953
vt 0.865805 0.532379
vt 1.000000 0.650820
vt 0.982304 0.590807
vt 0.898988 0.672487
vt 0.777615 0.625099
vt 0.762469 0.544232
vt 0.458304 0.360126
vt 0.357103 0.448606
vt 0.354152 0.359897
vt 0.461049 0.442622
vt 0.253158 0.454591
vt 0.250000 0.359668
vt 0.969141 0.194038
vt 0.857103 0.269639
vt 0.865805 0.181298
vt 0.958304 0.360126
vt 0.961049 0.276190
vt 0.854152 0.359897
vt 0.753158 0.263087
vt 0.762469 0.168559
vt 0.857103 0.448606
vt 0.961049 0.442622
vt 0.753158 0.454591
vt 0.750000 0.359668
vt 0.469141 0.194038
vt 0.357103 0.269639
vt 0.365805 0.181298
vt 0.461049 0.276190
vt 0.253158 0.263087
vt 0.262469 0.168559
vt 1.000000 0.047547
vt 0.879959 0.098295
vt 0.898988 0.023774
vt 0.982304 0.116849
vt 0.777615 0.079742
vt 0.797977 0.000000
vt 0.500000 0.047547
vt 0.379959 0.098295
vt 0.398988 0.023774
vt 0.482304 0.116849
vt 0.277615 0.079742
vt 0.297977 0.000000
vt 0.719141 0.520527
vt 0.629959 0.607953
vt 0.615805 0.532379
vt 0.750000 0.650820
vt 0.732304 0.590807
vt 0.648988 0.672487
vt 0.527615 0.625099
vt 0.512469 0.544232
vt 0.219141 0.520527
vt 0.129959 0.607953
vt 0.115805 0.532379
vt 0.250000 0.650820
vt 0.232304 0.590807
vt 0.148988 0.672487
vt 0.027615 0.625099
vt 0.012469 0.544232
vt 0.708304 0.360126
vt 0.607103 0.448607
vt 0.604152 0.359897
vt 0.711049 0.442622
vt 0.503158 0.454591
vt 0.500000 0.359668
vt 0.208304 0.360126
vt 0.107103 0.448607
vt 0.104152 0.359897
vt 0.211049 0.442622
vt 0.003158 0.454591
vt 0.000000 0.359668
vt 0.719141 0.194038
vt 0.607103 0.269639
vt 0.615805 0.181298
vt 0.711049 0.276190
vt 0.503158 0.263087
vt 0.512469 0.168559
vt 0.107103 0.269639
vt 0.211049 0.276190
vt 0.003158 0.263087
vt 0.012469 0.168559
vt 0.750000 0.047547
vt 0.629959 0.098295
vt 0.648988 0.023774
vt 0.732304 0.116849
vt 0.527615 0.079742
vt 0.547977 0.000000
vt 0.297977 0.694153
vt 0.797977 0.694153
vt 0.547977 0.694153
vt 0.047977 0.694153
vn 0.6723 0.6723 0.3097
vn 0.7906 0.5283 0.3097
vn 0.8784 0.3639 0.3097
vn 0.7906 0.5282 0.3097
vn -0.3639 -0.8784 0.3097
vn -0.5283 -0.7906 0.3097
vn -0.6723 -0.6723 0.3097
vn 0.3639 0.8784 0.3097
vn 0.5283 0.7906 0.3097
vn 0.0000 -0.9508 0.3097
vn -0.1855 -0.9326 0.3097
vn -0.3639 0.8784 0.3097
vn -0.1855 0.9326 0.3097
vn 0.0000 0.9508 0.3097
vn 0.1855 0.9326 0.3097
vn 0.3639 -0.8784 0.3097
vn 0.1855 -0.9326 0.3097
vn -0.6723 0.6723 0.3097
vn -0.5283 0.7906 0.3097
vn 0.6723 -0.6723 0.3097
vn 0.5283 -0.7906 0.3097
vn -0.8784 0.3639 0.3097
vn -0.7906 0.5283 0.3097
vn -0.7906 0.5282 0.3097
vn 0.8784 -0.3639 0.3097
vn 0.7906 -0.5283 0.3097
vn 0.7906 -0.5282 0.3097
vn -0.9508 -0.0000 0.3097
vn -0.9326 0.1855 0.3097
vn 0.9508 0.0000 0.3097
vn 0.9326 -0.1855 0.3097
vn -0.8784 -0.3639 0.3097
vn -0.9326 -0.1855 0.3097
vn 0.9326 0.1855 0.3097
vn -0.7906 -0.5283 0.3097
vn -0.7906 -0.5282 0.3097
usemtl Material.018
s 1
f 15/1/1 81/2/2 66/3/1
f 14/4/3 81/2/2 46/5/4
f 65/6/3 62/7/4 81/2/2
f 66/3/1 62/7/4 31/8/1
f 8/9/5 82/10/6 68/11/5
f 7/12/7 82/10/6 39/13/6
f 67/14/7 55/15/6 82/10/6
f 68/11/5 55/15/6 24/16/5
f 16/17/8 83/18/9 69/19/8
f 15/20/1 83/18/9 47/21/9
f 66/22/1 63/23/9 83/18/9
f 69/19/8 63/23/9 32/24/8
f 9/25/10 84/26/11 70/27/10
f 8/9/5 84/26/11 40/28/11
f 68/11/5 56/29/11 84/26/11
f 70/27/10 56/29/11 25/30/10
f 2/31/12 85/32/13 72/33/12
f 1/34/14 85/32/13 33/35/13
f 71/36/14 49/37/13 85/32/13
f 72/33/12 49/37/13 18/38/12
f 1/34/14 86/39/15 71/36/14
f 16/17/8 86/39/15 48/40/15
f 69/19/8 64/41/15 86/39/15
f 71/36/14 64/41/15 17/42/14
f 10/43/16 87/44/17 73/45/16
f 9/25/10 87/44/17 41/46/17
f 70/27/10 57/47/17 87/44/17
f 73/45/16 57/47/17 26/48/16
f 3/49/18 88/50/19 74/51/18
f 2/31/12 88/50/19 34/52/19
f 72/33/12 50/53/19 88/50/19
f 74/51/18 50/53/19 19/54/18
f 11/55/20 89/56/21 75/57/20
f 10/43/16 89/56/21 42/58/21
f 73/45/16 58/59/21 89/56/21
f 75/57/20 58/59/21 27/60/20
f 4/61/22 90/62/23 76/63/22
f 3/64/18 90/62/23 35/65/24
f 74/66/18 51/67/23 90/62/23
f 76/63/22 51/67/23 20/68/22
f 12/69/25 91/70/26 77/71/25
f 11/72/20 91/70/26 43/73/27
f 75/74/20 59/75/26 91/70/26
f 77/71/25 59/75/26 28/76/25
f 5/77/28 92/78/29 78/79/28
f 4/61/22 92/78/29 36/80/29
f 76/63/22 52/81/29 92/78/29
f 78/79/28 52/81/29 21/82/28
f 13/83/30 93/84/31 79/85/30
f 12/69/25 93/84/31 44/86/31
f 77/71/25 60/87/31 93/84/31
f 79/85/30 60/87/31 29/88/30
f 6/89/32 94/90/33 80/91/32
f 5/77/28 94/90/33 37/92/33
f 78/79/28 53/93/33 94/90/33
f 80/91/32 53/93/33 22/94/32
f 14/4/3 95/95/34 65/6/3
f 13/83/30 95/95/34 45/96/34
f 79/85/30 61/97/34 95/95/34
f 65/6/3 61/97/34 30/98/3
f 7/99/7 96/100/35 67/101/7
f 6/89/32 96/100/35 38/102/36
f 80/91/32 54/103/35 96/100/35
f 67/101/7 54/103/35 23/104/7
f 15/1/1 46/5/4 81/2/2
f 14/4/3 65/6/3 81/2/2
f 65/6/3 30/98/3 62/7/4
f 66/3/1 81/2/2 62/7/4
f 8/9/5 39/13/6 82/10/6
f 7/12/7 67/14/7 82/10/6
f 67/14/7 23/105/7 55/15/6
f 68/11/5 82/10/6 55/15/6
f 16/17/8 47/21/9 83/18/9
f 15/20/1 66/22/1 83/18/9
f 66/22/1 31/106/1 63/23/9
f 69/19/8 83/18/9 63/23/9
f 9/25/10 40/28/11 84/26/11
f 8/9/5 68/11/5 84/26/11
f 68/11/5 24/16/5 56/29/11
f 70/27/10 84/26/11 56/29/11
f 2/31/12 33/35/13 85/32/13
f 1/34/14 71/36/14 85/32/13
f 71/36/14 17/42/14 49/37/13
f 72/33/12 85/32/13 49/37/13
f 1/34/14 48/40/15 86/39/15
f 16/17/8 69/19/8 86/39/15
f 69/19/8 32/24/8 64/41/15
f 71/36/14 86/39/15 64/41/15
f 10/43/16 41/46/17 87/44/17
f 9/25/10 70/27/10 87/44/17
f 70/27/10 25/30/10 57/47/17
f 73/45/16 87/44/17 57/47/17
f 3/49/18 34/52/19 88/50/19
f 2/31/12 72/33/12 88/50/19
f 72/33/12 18/38/12 50/53/19
f 74/51/18 88/50/19 50/53/19
f 11/55/20 42/58/21 89/56/21
f 10/43/16 73/45/16 89/56/21
f 73/45/16 26/48/16 58/59/21
f 75/57/20 89/56/21 58/59/21
f 4/61/22 35/65/24 90/62/23
f 3/64/18 74/66/18 90/62/23
f 74/66/18 19/107/18 51/67/23
f 76/63/22 90/62/23 51/67/23
f 12/69/25 43/73/27 91/70/26
f 11/72/20 75/74/20 91/70/26
f 75/74/20 27/108/20 59/75/26
f 77/71/25 91/70/26 59/75/26
f 5/77/28 36/80/29 92/78/29
f 4/61/22 76/63/22 92/78/29
f 76/63/22 20/68/22 52/81/29
f 78/79/28 92/78/29 52/81/29
f 13/83/30 44/86/31 93/84/31
f 12/69/25 77/71/25 93/84/31
f 77/71/25 28/76/25 60/87/31
f 79/85/30 93/84/31 60/87/31
f 6/89/32 37/92/33 94/90/33
f 5/77/28 78/79/28 94/90/33
f 78/79/28 21/82/28 53/93/33
f 80/91/32 94/90/33 53/93/33
f 14/4/3 45/96/34 95/95/34
f 13/83/30 79/85/30 95/95/34
f 79/85/30 29/88/30 61/97/34
f 65/6/3 95/95/34 61/97/34
f 7/99/7 38/102/36 96/100/35
f 6/89/32 80/91/32 96/100/35
f 80/91/32 22/94/32 54/103/35
f 67/101/7 96/100/35 54/103/35
