# Blender v3.1.2 OBJ File: 'shelby_cobra2.blend'
# www.blender.org
mtllib Shelby_Cobra_dashboard_pilot_light_circle1.mtl
o Circle.021_Circle.016
v 0.365156 0.759712 0.066558
v 0.360986 0.760502 0.066810
v 0.357451 0.762753 0.067528
v 0.355089 0.766120 0.068602
v 0.354259 0.770093 0.069870
v 0.355089 0.774066 0.071138
v 0.357451 0.777433 0.072212
v 0.360986 0.779684 0.072930
v 0.365156 0.780474 0.073182
v 0.369326 0.779684 0.072930
v 0.372861 0.777433 0.072212
v 0.375223 0.774066 0.071138
v 0.376052 0.770093 0.069870
v 0.375223 0.766120 0.068602
v 0.372861 0.762753 0.067528
v 0.369326 0.760502 0.066810
v 0.365156 0.760596 0.066196
v 0.361266 0.761333 0.066431
v 0.357969 0.763432 0.067101
v 0.355765 0.766574 0.068103
v 0.354992 0.770279 0.069286
v 0.355765 0.773985 0.070468
v 0.357969 0.777126 0.071471
v 0.361266 0.779225 0.072140
v 0.365156 0.779962 0.072376
v 0.369045 0.779225 0.072140
v 0.372343 0.777126 0.071471
v 0.374546 0.773985 0.070468
v 0.375320 0.770279 0.069286
v 0.374546 0.766574 0.068103
v 0.372343 0.763432 0.067101
v 0.369045 0.761333 0.066431
v 0.365156 0.761104 0.067002
v 0.361545 0.761788 0.067220
v 0.358484 0.763737 0.067842
v 0.356438 0.766653 0.068772
v 0.355720 0.770093 0.069870
v 0.356438 0.773533 0.070968
v 0.358484 0.776449 0.071898
v 0.361545 0.778398 0.072520
v 0.365156 0.779082 0.072738
v 0.368767 0.778398 0.072520
v 0.371828 0.776449 0.071898
v 0.373873 0.773533 0.070968
v 0.374591 0.770093 0.069870
v 0.373873 0.766653 0.068772
v 0.371828 0.763737 0.067842
v 0.368767 0.761788 0.067220
v 0.363030 0.759912 0.066621
v 0.359102 0.761462 0.067116
v 0.356096 0.764326 0.068030
v 0.354469 0.768068 0.069224
v 0.354469 0.772118 0.070516
v 0.356096 0.775860 0.071710
v 0.359102 0.778724 0.072624
v 0.363030 0.780274 0.073119
v 0.367281 0.780274 0.073119
v 0.371209 0.778724 0.072624
v 0.374215 0.775860 0.071710
v 0.375842 0.772118 0.070516
v 0.375842 0.768068 0.069224
v 0.374215 0.764326 0.068030
v 0.371209 0.761462 0.067116
v 0.367281 0.759912 0.066621
v 0.363173 0.760783 0.066256
v 0.359509 0.762229 0.066717
v 0.356705 0.764900 0.067569
v 0.355188 0.768390 0.068683
v 0.355188 0.772168 0.069889
v 0.356705 0.775659 0.071002
v 0.359509 0.778330 0.071855
v 0.363173 0.779776 0.072316
v 0.367138 0.779776 0.072316
v 0.370802 0.778330 0.071855
v 0.373606 0.775659 0.071002
v 0.375124 0.772168 0.069889
v 0.375124 0.768390 0.068683
v 0.373606 0.764900 0.067569
v 0.370802 0.762229 0.066717
v 0.367138 0.760783 0.066256
v 0.365156 0.780253 0.072669
v 0.369185 0.779489 0.072426
v 0.361126 0.760953 0.066511
v 0.357710 0.763128 0.067205
v 0.372602 0.777315 0.071732
v 0.355427 0.766382 0.068243
v 0.374884 0.774060 0.070693
v 0.354626 0.770221 0.069468
v 0.375686 0.770221 0.069468
v 0.355427 0.774060 0.070693
v 0.374884 0.766382 0.068243
v 0.357710 0.777315 0.071732
v 0.372602 0.763128 0.067205
v 0.361126 0.779489 0.072426
v 0.369185 0.760953 0.066511
v 0.365156 0.760189 0.066267
v 0.363315 0.761277 0.067057
v 0.359914 0.762619 0.067485
v 0.357311 0.765099 0.068277
v 0.355902 0.768339 0.069310
v 0.355902 0.771847 0.070430
v 0.357311 0.775087 0.071463
v 0.359914 0.777567 0.072255
v 0.363315 0.778909 0.072683
v 0.366996 0.778909 0.072683
v 0.370398 0.777567 0.072255
v 0.373001 0.775087 0.071463
v 0.374409 0.771847 0.070430
v 0.374409 0.768339 0.069310
v 0.373001 0.765099 0.068277
v 0.370398 0.762619 0.067485
v 0.366996 0.761277 0.067057
v 0.361406 0.761596 0.066716
v 0.358226 0.763620 0.067362
v 0.368906 0.778846 0.072221
v 0.372085 0.776823 0.071575
v 0.356102 0.766648 0.068328
v 0.374209 0.773794 0.070608
v 0.355356 0.770221 0.069468
v 0.374955 0.770221 0.069468
v 0.356102 0.773794 0.070608
v 0.374209 0.766648 0.068328
v 0.358226 0.776823 0.071575
v 0.372085 0.763620 0.067362
v 0.361406 0.778846 0.072221
v 0.368906 0.761596 0.066716
v 0.365156 0.779557 0.072447
v 0.365156 0.760885 0.066489
v 0.367210 0.780059 0.072608
v 0.359306 0.761881 0.066807
v 0.371005 0.778562 0.072130
v 0.356401 0.764648 0.067690
v 0.373910 0.775794 0.071247
v 0.354829 0.768264 0.068844
v 0.375483 0.772178 0.070093
v 0.354829 0.772178 0.070093
v 0.375483 0.768264 0.068844
v 0.356401 0.775794 0.071247
v 0.373910 0.764648 0.067690
v 0.359306 0.778562 0.072130
v 0.371005 0.761881 0.066807
v 0.363102 0.780059 0.072608
v 0.363102 0.760383 0.066329
v 0.367210 0.760383 0.066329
v 0.359712 0.762459 0.066992
v 0.370600 0.777983 0.071945
v 0.357008 0.765035 0.067813
v 0.373303 0.775407 0.071123
v 0.355545 0.768400 0.068887
v 0.374766 0.772042 0.070050
v 0.355545 0.772042 0.070050
v 0.374766 0.768400 0.068887
v 0.357008 0.775407 0.071123
v 0.373303 0.765035 0.067813
v 0.359712 0.777983 0.071945
v 0.370600 0.762459 0.066992
v 0.363244 0.779377 0.072390
v 0.363244 0.761065 0.066547
v 0.367067 0.761065 0.066547
v 0.367067 0.779377 0.072390
vt 0.000000 0.000000
vt 0.000000 0.000000
vt 0.000000 0.000000
vt 0.000000 0.000000
vt 0.000000 0.000000
vt 0.000000 0.000000
vt 0.000000 0.000000
vt 0.000000 0.000000
vt 0.000000 0.000000
vt 0.000000 0.000000
vt 0.000000 0.000000
vt 0.000000 0.000000
vt 0.000000 0.000000
vt 0.000000 0.000000
vt 0.000000 0.000000
vt 0.000000 0.000000
vt 0.000000 0.000000
vt 0.000000 0.000000
vt 0.000000 0.000000
vt 0.000000 0.000000
vt 0.000000 0.000000
vt 0.000000 0.000000
vt 0.000000 0.000000
vt 0.000000 0.000000
vt 0.000000 0.000000
vt 0.000000 0.000000
vt 0.000000 0.000000
vt 0.000000 0.000000
vt 0.000000 0.000000
vt 0.000000 0.000000
vt 0.000000 0.000000
vt 0.000000 0.000000
vt 0.000000 0.000000
vt 0.000000 0.000000
vt 0.000000 0.000000
vt 0.000000 0.000000
vt 0.000000 0.000000
vt 0.000000 0.000000
vt 0.000000 0.000000
vt 0.000000 0.000000
vt 0.000000 0.000000
vt 0.000000 0.000000
vt 0.000000 0.000000
vt 0.000000 0.000000
vt 0.000000 0.000000
vt 0.000000 0.000000
vt 0.000000 0.000000
vt 0.000000 0.000000
vt 0.000000 0.000000
vt 0.000000 0.000000
vt 0.000000 0.000000
vt 0.000000 0.000000
vt 0.000000 0.000000
vt 0.000000 0.000000
vt 0.000000 0.000000
vt 0.000000 0.000000
vt 0.000000 0.000000
vt 0.000000 0.000000
vt 0.000000 0.000000
vt 0.000000 0.000000
vt 0.000000 0.000000
vt 0.000000 0.000000
vt 0.000000 0.000000
vt 0.000000 0.000000
vt 0.000000 0.000000
vt 0.000000 0.000000
vt 0.000000 0.000000
vt 0.000000 0.000000
vt 0.000000 0.000000
vt 0.000000 0.000000
vt 0.000000 0.000000
vt 0.000000 0.000000
vt 0.000000 0.000000
vt 0.000000 0.000000
vt 0.000000 0.000000
vt 0.000000 0.000000
vt 0.000000 0.000000
vt 0.000000 0.000000
vt 0.000000 0.000000
vt 0.000000 0.000000
vt 0.000000 0.000000
vt 0.000000 0.000000
vt 0.000000 0.000000
vt 0.000000 0.000000
vt 0.000000 0.000000
vt 0.000000 0.000000
vt 0.000000 0.000000
vt 0.000000 0.000000
vt 0.000000 0.000000
vt 0.000000 0.000000
vt 0.000000 0.000000
vt 0.000000 0.000000
vt 0.000000 0.000000
vt 0.000000 0.000000
vt 0.000000 0.000000
vt 0.000000 0.000000
vt 0.000000 0.000000
vt 0.000000 0.000000
vt 0.000000 0.000000
vt 0.000000 0.000000
vt 0.000000 0.000000
vt 0.000000 0.000000
vt 0.000000 0.000000
vt 0.000000 0.000000
vt 0.000000 0.000000
vt 0.000000 0.000000
vt 0.000000 0.000000
vt 0.000000 0.000000
vt 0.000000 0.000000
vt 0.000000 0.000000
vt 0.000000 0.000000
vt 0.000000 0.000000
vt 0.000000 0.000000
vt 0.000000 0.000000
vt 0.000000 0.000000
vt 0.000000 0.000000
vt 0.000000 0.000000
vt 0.000000 0.000000
vt 0.000000 0.000000
vt 0.000000 0.000000
vt 0.000000 0.000000
vt 0.000000 0.000000
vt 0.000000 0.000000
vt 0.000000 0.000000
vt 0.000000 0.000000
vt 0.000000 0.000000
vt 0.000000 0.000000
vt 0.000000 0.000000
vt 0.000000 0.000000
vt 0.000000 0.000000
vt 0.000000 0.000000
vt 0.000000 0.000000
vt 0.000000 0.000000
vt 0.000000 0.000000
vt 0.000000 0.000000
vt 0.000000 0.000000
vt 0.000000 0.000000
vt 0.000000 0.000000
vt 0.000000 0.000000
vt 0.000000 0.000000
vt 0.000000 0.000000
vt 0.000000 0.000000
vt 0.000000 0.000000
vt 0.000000 0.000000
vt 0.000000 0.000000
vt 0.000000 0.000000
vt 0.000000 0.000000
vt 0.000000 0.000000
vt 0.000000 0.000000
vt 0.000000 0.000000
vt 0.000000 0.000000
vt 0.000000 0.000000
vt 0.000000 0.000000
vt 0.000000 0.000000
vt 0.000000 0.000000
vt 0.000000 0.000000
vt 0.000000 0.000000
vt 0.000000 0.000000
vt 0.000000 0.000000
vt 0.000000 0.000000
vn -0.1472 -0.9046 0.4001
vn -0.2400 -0.7887 0.5660
vn -0.2888 -0.8637 0.4132
vn 0.0000 -0.8341 0.5516
vn -0.1223 -0.8227 0.5552
vn -0.0000 -0.7112 0.7030
vn -0.0905 -0.7028 0.7056
vn -0.1775 -0.6776 0.7137
vn 0.4192 0.3983 0.8158
vn 0.4434 0.1856 0.8769
vn 0.5335 0.3088 0.7874
vn 0.2400 0.3151 0.9182
vn 0.3484 0.2599 0.9006
vn 0.1776 0.1391 0.9742
vn 0.2578 0.0983 0.9612
vn 0.3281 0.0433 0.9437
vn -0.4192 -0.7972 0.4344
vn -0.4434 -0.6592 0.6074
vn -0.5335 -0.7078 0.4630
vn -0.3484 -0.7335 0.5836
vn -0.2579 -0.6369 0.7265
vn -0.3280 -0.5818 0.7443
vn 0.6274 0.1999 0.7526
vn 0.5793 -0.0082 0.8151
vn 0.6971 0.0756 0.7130
vn 0.5213 0.0950 0.8481
vn 0.3858 -0.0237 0.9223
vn 0.4287 -0.1001 0.8979
vn -0.6274 -0.5989 0.4977
vn -0.5793 -0.4654 0.6692
vn -0.6971 -0.4746 0.5374
vn -0.5213 -0.5687 0.6363
vn -0.3858 -0.5149 0.7655
vn -0.4286 -0.4384 0.7900
vn 0.7401 -0.0592 0.6699
vn 0.6270 -0.2368 0.7421
vn 0.7545 -0.1995 0.6252
vn 0.6150 -0.1203 0.7793
vn 0.4550 -0.1831 0.8714
vn 0.4640 -0.2693 0.8439
vn -0.7401 -0.3397 0.5804
vn -0.6270 -0.2368 0.7421
vn -0.7545 -0.1995 0.6252
vn -0.6150 -0.3533 0.7050
vn -0.4551 -0.3555 0.8164
vn -0.4640 -0.2693 0.8439
vn 0.7401 -0.3397 0.5804
vn 0.5793 -0.4654 0.6692
vn 0.6971 -0.4746 0.5374
vn 0.6150 -0.3533 0.7049
vn 0.4551 -0.3555 0.8164
vn 0.4286 -0.4384 0.7900
vn -0.7401 -0.0592 0.6699
vn -0.5793 -0.0082 0.8151
vn -0.6971 0.0756 0.7130
vn -0.6150 -0.1203 0.7793
vn -0.4551 -0.1830 0.8714
vn -0.4287 -0.1002 0.8979
vn 0.6274 -0.5989 0.4977
vn 0.4434 -0.6592 0.6074
vn 0.5336 -0.7078 0.4630
vn 0.5213 -0.5687 0.6363
vn 0.3858 -0.5149 0.7656
vn 0.3280 -0.5818 0.7443
vn -0.6274 0.1999 0.7526
vn -0.4433 0.1856 0.8769
vn -0.5335 0.3088 0.7874
vn -0.5213 0.0950 0.8480
vn -0.3858 -0.0237 0.9223
vn -0.3280 0.0433 0.9437
vn 0.4193 -0.7973 0.4343
vn 0.2400 -0.7887 0.5660
vn 0.2888 -0.8637 0.4132
vn 0.3484 -0.7336 0.5835
vn 0.2579 -0.6369 0.7265
vn 0.1775 -0.6776 0.7137
vn -0.4192 0.3983 0.8159
vn -0.2400 0.3151 0.9182
vn -0.2888 0.4646 0.8371
vn -0.3484 0.2599 0.9006
vn -0.2578 0.0983 0.9612
vn -0.1776 0.1391 0.9742
vn 0.1472 -0.9046 0.4001
vn 0.0000 -0.9183 0.3958
vn 0.1223 -0.8227 0.5551
vn 0.0905 -0.7029 0.7056
vn 0.1472 0.5056 0.8501
vn 0.2888 0.4646 0.8371
vn -0.0000 0.3605 0.9327
vn 0.1223 0.3491 0.9291
vn 0.0000 0.1727 0.9850
vn 0.0905 0.1643 0.9823
vn -0.1472 0.5056 0.8501
vn -0.0000 0.5194 0.8546
vn -0.1223 0.3491 0.9291
vn -0.0905 0.1642 0.9823
vn -0.2585 -0.6376 0.7257
vn -0.4347 -0.6539 0.6193
vn -0.3289 -0.5824 0.7434
vn -0.2353 -0.7809 0.5787
vn -0.3416 -0.7268 0.5959
vn -0.2897 -0.8650 0.4097
vn -0.4206 -0.7982 0.4312
vn -0.5353 -0.7086 0.4597
vn 0.2585 0.0994 0.9609
vn 0.4348 0.1744 0.8835
vn 0.3290 0.0443 0.9433
vn 0.2353 0.3014 0.9240
vn 0.3416 0.2473 0.9068
vn 0.2897 0.4677 0.8351
vn 0.4205 0.4010 0.8138
vn 0.5354 0.3114 0.7851
vn -0.3869 -0.5154 0.7647
vn -0.5680 -0.4639 0.6798
vn -0.4298 -0.4387 0.7892
vn -0.5113 -0.5652 0.6474
vn -0.6295 -0.5993 0.4945
vn -0.6994 -0.4746 0.5343
vn 0.3869 -0.0228 0.9218
vn 0.5680 -0.0156 0.8229
vn 0.4298 -0.0994 0.8974
vn 0.5112 0.0857 0.8552
vn 0.6294 0.2021 0.7503
vn 0.6994 0.0774 0.7105
vn -0.4563 -0.3555 0.8157
vn -0.6148 -0.2398 0.7514
vn -0.4652 -0.2691 0.8433
vn -0.6030 -0.3540 0.7149
vn -0.7425 -0.3393 0.5776
vn -0.7571 -0.1986 0.6224
vn 0.4563 -0.1826 0.8709
vn 0.6148 -0.2398 0.7514
vn 0.4652 -0.2691 0.8433
vn 0.6030 -0.1255 0.7878
vn 0.7425 -0.0579 0.6673
vn 0.7571 -0.1986 0.6224
vn -0.4563 -0.1826 0.8709
vn -0.5680 -0.0156 0.8229
vn -0.4298 -0.0995 0.8974
vn -0.6030 -0.1255 0.7878
vn -0.7425 -0.0579 0.6673
vn -0.6994 0.0774 0.7105
vn 0.4563 -0.3555 0.8157
vn 0.5680 -0.4639 0.6798
vn 0.4298 -0.4387 0.7892
vn 0.6030 -0.3540 0.7149
vn 0.7425 -0.3393 0.5776
vn 0.6994 -0.4746 0.5343
vn -0.3869 -0.0228 0.9218
vn -0.4348 0.1744 0.8835
vn -0.3290 0.0443 0.9433
vn -0.5112 0.0857 0.8552
vn -0.6294 0.2021 0.7503
vn -0.5354 0.3114 0.7851
vn 0.3869 -0.5154 0.7647
vn 0.4347 -0.6539 0.6193
vn 0.3289 -0.5824 0.7434
vn 0.5113 -0.5652 0.6475
vn 0.6295 -0.5993 0.4946
vn 0.5353 -0.7086 0.4597
vn -0.2585 0.0994 0.9609
vn -0.2353 0.3013 0.9240
vn -0.1781 0.1404 0.9739
vn -0.3416 0.2473 0.9068
vn -0.4205 0.4010 0.8138
vn -0.2897 0.4677 0.8351
vn 0.2585 -0.6376 0.7257
vn 0.2353 -0.7809 0.5787
vn 0.1780 -0.6785 0.7127
vn 0.3416 -0.7268 0.5959
vn 0.4206 -0.7982 0.4312
vn 0.2897 -0.8650 0.4097
vn -0.0908 0.1656 0.9820
vn 0.0000 0.3459 0.9383
vn 0.0000 0.1741 0.9847
vn -0.1199 0.3348 0.9346
vn -0.1477 0.5088 0.8481
vn 0.0000 0.5226 0.8526
vn -0.0908 -0.7038 0.7046
vn -0.1780 -0.6785 0.7127
vn -0.0000 -0.8255 0.5644
vn -0.1200 -0.8142 0.5680
vn -0.0000 -0.9199 0.3922
vn -0.1477 -0.9060 0.3967
vn 0.0908 -0.7038 0.7046
vn 0.0000 -0.7123 0.7019
vn 0.1200 -0.8142 0.5680
vn 0.1477 -0.9060 0.3967
vn 0.0908 0.1656 0.9820
vn 0.1781 0.1404 0.9739
vn 0.1199 0.3348 0.9346
vn 0.1477 0.5088 0.8481
usemtl chrom.002
s 1
f 57/1/1 82/2/2 10/3/3
f 57/1/1 81/4/4 129/5/5
f 129/5/5 25/6/6 73/7/7
f 129/5/5 26/8/8 82/2/2
f 50/9/9 84/10/10 3/11/11
f 50/9/9 83/12/12 130/13/13
f 130/13/13 18/14/14 66/15/15
f 130/13/13 19/16/16 84/10/10
f 58/17/17 85/18/18 11/19/19
f 58/17/17 82/2/2 131/20/20
f 131/20/20 26/8/8 74/21/21
f 131/20/20 27/22/22 85/18/18
f 51/23/23 86/24/24 4/25/25
f 51/23/23 84/10/10 132/26/26
f 132/26/26 19/16/16 67/27/27
f 132/26/26 20/28/28 86/24/24
f 59/29/29 87/30/30 12/31/31
f 59/29/29 85/18/18 133/32/32
f 133/32/32 27/22/22 75/33/33
f 133/32/32 28/34/34 87/30/30
f 52/35/35 88/36/36 5/37/37
f 52/35/35 86/24/24 134/38/38
f 134/38/38 20/28/28 68/39/39
f 134/38/38 21/40/40 88/36/36
f 60/41/41 89/42/42 13/43/43
f 60/41/41 87/30/30 135/44/44
f 135/44/44 28/34/34 76/45/45
f 135/44/44 29/46/46 89/42/42
f 53/47/47 90/48/48 6/49/49
f 53/47/47 88/36/36 136/50/50
f 136/50/50 21/40/40 69/51/51
f 136/50/50 22/52/52 90/48/48
f 61/53/53 91/54/54 14/55/55
f 61/53/53 89/42/42 137/56/56
f 137/56/56 29/46/46 77/57/57
f 137/56/56 30/58/58 91/54/54
f 54/59/59 92/60/60 7/61/61
f 54/59/59 90/48/48 138/62/62
f 138/62/62 22/52/52 70/63/63
f 138/62/62 23/64/64 92/60/60
f 62/65/65 93/66/66 15/67/67
f 62/65/65 91/54/54 139/68/68
f 139/68/68 30/58/58 78/69/69
f 139/68/68 31/70/70 93/66/66
f 55/71/71 94/72/72 8/73/73
f 55/71/71 92/60/60 140/74/74
f 140/74/74 23/64/64 71/75/75
f 140/74/74 24/76/76 94/72/72
f 63/77/77 95/78/78 16/79/79
f 63/77/77 93/66/66 141/80/80
f 141/80/80 31/70/70 79/81/81
f 141/80/80 32/82/82 95/78/78
f 56/83/83 81/4/4 9/84/84
f 56/83/83 94/72/72 142/85/85
f 142/85/85 24/76/76 72/86/86
f 142/85/85 25/6/6 81/4/4
f 49/87/87 83/12/12 2/88/88
f 49/87/87 96/89/89 143/90/90
f 143/90/90 17/91/91 65/92/92
f 143/90/90 18/14/14 83/12/12
f 64/93/93 96/89/89 1/94/94
f 64/93/93 95/78/78 144/95/95
f 144/95/95 32/82/82 80/96/96
f 144/95/95 17/91/91 96/89/89
f 66/15/97 114/97/98 19/16/99
f 66/15/97 113/98/100 145/99/101
f 145/99/101 34/100/102 98/101/103
f 145/99/101 35/102/104 114/97/98
f 74/21/105 116/103/106 27/22/107
f 74/21/105 115/104/108 146/105/109
f 146/105/109 42/106/110 106/107/111
f 146/105/109 43/108/112 116/103/106
f 67/27/113 117/109/114 20/28/115
f 67/27/113 114/97/98 147/110/116
f 147/110/116 35/102/104 99/111/117
f 147/110/116 36/112/118 117/109/114
f 75/33/119 118/113/120 28/34/121
f 75/33/119 116/103/106 148/114/122
f 148/114/122 43/108/112 107/115/123
f 148/114/122 44/116/124 118/113/120
f 68/39/125 119/117/126 21/40/127
f 68/39/125 117/109/114 149/118/128
f 149/118/128 36/112/118 100/119/129
f 149/118/128 37/120/130 119/117/126
f 76/45/131 120/121/132 29/46/133
f 76/45/131 118/113/120 150/122/134
f 150/122/134 44/116/124 108/123/135
f 150/122/134 45/124/136 120/121/132
f 69/51/137 121/125/138 22/52/139
f 69/51/137 119/117/126 151/126/140
f 151/126/140 37/120/130 101/127/141
f 151/126/140 38/128/142 121/125/138
f 77/57/143 122/129/144 30/58/145
f 77/57/143 120/121/132 152/130/146
f 152/130/146 45/124/136 109/131/147
f 152/130/146 46/132/148 122/129/144
f 70/63/149 123/133/150 23/64/151
f 70/63/149 121/125/138 153/134/152
f 153/134/152 38/128/142 102/135/153
f 153/134/152 39/136/154 123/133/150
f 78/69/155 124/137/156 31/70/157
f 78/69/155 122/129/144 154/138/158
f 154/138/158 46/132/148 110/139/159
f 154/138/158 47/140/160 124/137/156
f 71/75/161 125/141/162 24/76/163
f 71/75/161 123/133/150 155/142/164
f 155/142/164 39/136/154 103/143/165
f 155/142/164 40/144/166 125/141/162
f 79/81/167 126/145/168 32/82/169
f 79/81/167 124/137/156 156/146/170
f 156/146/170 47/140/160 111/147/171
f 156/146/170 48/148/172 126/145/168
f 72/86/173 127/149/174 25/6/175
f 72/86/173 125/141/162 157/150/176
f 157/150/176 40/144/166 104/151/177
f 157/150/176 41/152/178 127/149/174
f 65/92/179 113/98/100 18/14/180
f 65/92/179 128/153/181 158/154/182
f 158/154/182 33/155/183 97/156/184
f 158/154/182 34/100/102 113/98/100
f 80/96/185 128/153/181 17/91/186
f 80/96/185 126/145/168 159/157/187
f 159/157/187 48/148/172 112/158/188
f 159/157/187 33/155/183 128/153/181
f 73/7/189 115/104/108 26/8/190
f 73/7/189 127/149/174 160/159/191
f 160/159/191 41/152/178 105/160/192
f 160/159/191 42/106/110 115/104/108
f 57/1/1 129/5/5 82/2/2
f 57/1/1 9/84/84 81/4/4
f 129/5/5 81/4/4 25/6/6
f 129/5/5 73/7/7 26/8/8
f 50/9/9 130/13/13 84/10/10
f 50/9/9 2/88/88 83/12/12
f 130/13/13 83/12/12 18/14/14
f 130/13/13 66/15/15 19/16/16
f 58/17/17 131/20/20 85/18/18
f 58/17/17 10/3/3 82/2/2
f 131/20/20 82/2/2 26/8/8
f 131/20/20 74/21/21 27/22/22
f 51/23/23 132/26/26 86/24/24
f 51/23/23 3/11/11 84/10/10
f 132/26/26 84/10/10 19/16/16
f 132/26/26 67/27/27 20/28/28
f 59/29/29 133/32/32 87/30/30
f 59/29/29 11/19/19 85/18/18
f 133/32/32 85/18/18 27/22/22
f 133/32/32 75/33/33 28/34/34
f 52/35/35 134/38/38 88/36/36
f 52/35/35 4/25/25 86/24/24
f 134/38/38 86/24/24 20/28/28
f 134/38/38 68/39/39 21/40/40
f 60/41/41 135/44/44 89/42/42
f 60/41/41 12/31/31 87/30/30
f 135/44/44 87/30/30 28/34/34
f 135/44/44 76/45/45 29/46/46
f 53/47/47 136/50/50 90/48/48
f 53/47/47 5/37/37 88/36/36
f 136/50/50 88/36/36 21/40/40
f 136/50/50 69/51/51 22/52/52
f 61/53/53 137/56/56 91/54/54
f 61/53/53 13/43/43 89/42/42
f 137/56/56 89/42/42 29/46/46
f 137/56/56 77/57/57 30/58/58
f 54/59/59 138/62/62 92/60/60
f 54/59/59 6/49/49 90/48/48
f 138/62/62 90/48/48 22/52/52
f 138/62/62 70/63/63 23/64/64
f 62/65/65 139/68/68 93/66/66
f 62/65/65 14/55/55 91/54/54
f 139/68/68 91/54/54 30/58/58
f 139/68/68 78/69/69 31/70/70
f 55/71/71 140/74/74 94/72/72
f 55/71/71 7/61/61 92/60/60
f 140/74/74 92/60/60 23/64/64
f 140/74/74 71/75/75 24/76/76
f 63/77/77 141/80/80 95/78/78
f 63/77/77 15/67/67 93/66/66
f 141/80/80 93/66/66 31/70/70
f 141/80/80 79/81/81 32/82/82
f 56/83/83 142/85/85 81/4/4
f 56/83/83 8/73/73 94/72/72
f 142/85/85 94/72/72 24/76/76
f 142/85/85 72/86/86 25/6/6
f 49/87/87 143/90/90 83/12/12
f 49/87/87 1/94/94 96/89/89
f 143/90/90 96/89/89 17/91/91
f 143/90/90 65/92/92 18/14/14
f 64/93/93 144/95/95 96/89/89
f 64/93/93 16/79/79 95/78/78
f 144/95/95 95/78/78 32/82/82
f 144/95/95 80/96/96 17/91/91
f 66/15/97 145/99/101 114/97/98
f 66/15/97 18/14/180 113/98/100
f 145/99/101 113/98/100 34/100/102
f 145/99/101 98/101/103 35/102/104
f 74/21/105 146/105/109 116/103/106
f 74/21/105 26/8/190 115/104/108
f 146/105/109 115/104/108 42/106/110
f 146/105/109 106/107/111 43/108/112
f 67/27/113 147/110/116 117/109/114
f 67/27/113 19/16/99 114/97/98
f 147/110/116 114/97/98 35/102/104
f 147/110/116 99/111/117 36/112/118
f 75/33/119 148/114/122 118/113/120
f 75/33/119 27/22/107 116/103/106
f 148/114/122 116/103/106 43/108/112
f 148/114/122 107/115/123 44/116/124
f 68/39/125 149/118/128 119/117/126
f 68/39/125 20/28/115 117/109/114
f 149/118/128 117/109/114 36/112/118
f 149/118/128 100/119/129 37/120/130
f 76/45/131 150/122/134 120/121/132
f 76/45/131 28/34/121 118/113/120
f 150/122/134 118/113/120 44/116/124
f 150/122/134 108/123/135 45/124/136
f 69/51/137 151/126/140 121/125/138
f 69/51/137 21/40/127 119/117/126
f 151/126/140 119/117/126 37/120/130
f 151/126/140 101/127/141 38/128/142
f 77/57/143 152/130/146 122/129/144
f 77/57/143 29/46/133 120/121/132
f 152/130/146 120/121/132 45/124/136
f 152/130/146 109/131/147 46/132/148
f 70/63/149 153/134/152 123/133/150
f 70/63/149 22/52/139 121/125/138
f 153/134/152 121/125/138 38/128/142
f 153/134/152 102/135/153 39/136/154
f 78/69/155 154/138/158 124/137/156
f 78/69/155 30/58/145 122/129/144
f 154/138/158 122/129/144 46/132/148
f 154/138/158 110/139/159 47/140/160
f 71/75/161 155/142/164 125/141/162
f 71/75/161 23/64/151 123/133/150
f 155/142/164 123/133/150 39/136/154
f 155/142/164 103/143/165 40/144/166
f 79/81/167 156/146/170 126/145/168
f 79/81/167 31/70/157 124/137/156
f 156/146/170 124/137/156 47/140/160
f 156/146/170 111/147/171 48/148/172
f 72/86/173 157/150/176 127/149/174
f 72/86/173 24/76/163 125/141/162
f 157/150/176 125/141/162 40/144/166
f 157/150/176 104/151/177 41/152/178
f 65/92/179 158/154/182 113/98/100
f 65/92/179 17/91/186 128/153/181
f 158/154/182 128/153/181 33/155/183
f 158/154/182 97/156/184 34/100/102
f 80/96/185 159/157/187 128/153/181
f 80/96/185 32/82/169 126/145/168
f 159/157/187 126/145/168 48/148/172
f 159/157/187 112/158/188 33/155/183
f 73/7/189 160/159/191 115/104/108
f 73/7/189 25/6/175 127/149/174
f 160/159/191 127/149/174 41/152/178
f 160/159/191 105/160/192 42/106/110
