# Blender v3.1.2 OBJ File: 'shelby_cobra2.blend'
# www.blender.org
mtllib Shelby_Cobra_dashboard_pilot_light1.mtl
o Shelby_Cobra_dashboard_pilot_light.001_Icosphere
v 0.367912 0.778786 0.070536
v 0.357939 0.775698 0.069551
v 0.357939 0.765708 0.066363
v 0.367912 0.762621 0.065378
v 0.374076 0.770703 0.067957
v 0.365156 0.772379 0.062705
v 0.374641 0.772283 0.073144
v 0.374641 0.766411 0.071270
v 0.365156 0.778849 0.075238
v 0.371018 0.777034 0.074659
v 0.355670 0.772283 0.073144
v 0.359293 0.777034 0.074659
v 0.359293 0.761660 0.069754
v 0.355670 0.766411 0.071270
v 0.371018 0.761660 0.069754
v 0.365156 0.759846 0.069175
v 0.372019 0.775692 0.068727
v 0.362534 0.778628 0.069664
v 0.356672 0.770941 0.067211
v 0.362534 0.763254 0.064759
v 0.372019 0.766190 0.065695
v 0.366776 0.776677 0.065640
v 0.370399 0.771926 0.064124
v 0.360914 0.774862 0.065061
v 0.360914 0.768990 0.063187
v 0.366776 0.767176 0.062608
vt 0.818181 0.314921
vt 0.727272 0.314921
vt 0.772726 0.393651
vt 1.000000 0.314921
vt 0.909091 0.314921
vt 0.954545 0.393651
vt 0.272727 0.314921
vt 0.181818 0.314921
vt 0.227273 0.393651
vt 0.454545 0.314921
vt 0.363636 0.314921
vt 0.409090 0.393651
vt 0.636363 0.314921
vt 0.545454 0.314921
vt 0.590909 0.393651
vt 0.500000 0.393651
vt 0.545454 0.472382
vt 0.318182 0.393651
vt 0.363636 0.472382
vt 0.136363 0.393651
vt 0.181818 0.472382
vt 0.090909 0.314921
vt 0.863635 0.393651
vt 0.909090 0.472382
vt 0.681818 0.393651
vt 0.727272 0.472382
vt 0.590909 0.236191
vt 0.500000 0.236191
vt 0.409090 0.236191
vt 0.318182 0.236191
vt 0.227273 0.236191
vt 0.136363 0.236191
vt 0.954545 0.236191
vt 0.863635 0.236191
vt 0.772726 0.236191
vt 0.681818 0.236191
vt 0.045454 0.236191
vn 0.4089 0.7998 -0.4394
vn -0.4713 0.7567 -0.4531
vn -0.7002 -0.0542 -0.7119
vn 0.0385 -0.5122 -0.8580
vn 0.7240 0.0156 -0.6896
vn 0.2680 0.1013 -0.9581
vn 0.4911 -0.0984 -0.8655
vn 0.4089 -0.3975 -0.8214
vn -0.1024 -0.0134 -0.9947
vn -0.1876 -0.3085 -0.9326
vn -0.4713 -0.3544 -0.8076
vn -0.3313 0.2868 -0.8989
vn -0.6071 0.2416 -0.7571
vn -0.7002 0.4565 -0.5489
vn -0.1024 0.5870 -0.8031
vn -0.1876 0.7916 -0.5815
vn 0.0385 0.9145 -0.4028
vn 0.2680 0.4723 -0.8397
vn 0.4911 0.5815 -0.6486
vn 0.7240 0.3867 -0.5712
vn 0.8897 -0.1998 -0.4105
vn 0.7947 -0.4930 -0.3542
vn 0.5746 -0.6129 -0.5424
vn -0.0247 -0.7985 -0.6015
vn -0.3035 -0.8329 -0.4627
vn -0.5346 -0.6406 -0.5512
vn -0.9050 -0.1549 -0.3962
vn -0.9822 0.0570 -0.1787
vn -0.9050 0.3558 -0.2333
vn -0.5346 0.8415 -0.0783
vn -0.3035 0.9470 0.1052
vn -0.0247 0.9993 -0.0279
vn 0.5746 0.8138 -0.0871
vn 0.7947 0.6071 -0.0032
vn 0.8897 0.4006 -0.2190
vn 0.3066 -0.8607 -0.4065
vn 0.0000 -0.3040 0.9527
vn -0.8026 -0.5173 -0.2969
vn -0.8026 0.5937 0.0576
vn 0.3066 0.9371 0.1671
vn 0.9921 0.0382 -0.1197
usemtl Material.014
s off
f 1/1/1 17/2/1 22/3/1
f 2/4/2 18/5/2 24/6/2
f 3/7/3 19/8/3 25/9/3
f 4/10/4 20/11/4 26/12/4
f 5/13/5 21/14/5 23/15/5
f 23/15/6 26/16/6 6/17/6
f 23/15/7 21/14/7 26/16/7
f 21/14/8 4/10/8 26/16/8
f 26/12/9 25/18/9 6/19/9
f 26/12/10 20/11/10 25/18/10
f 20/11/11 3/7/11 25/18/11
f 25/9/12 24/20/12 6/21/12
f 25/9/13 19/8/13 24/20/13
f 19/8/14 2/22/14 24/20/14
f 24/6/15 22/23/15 6/24/15
f 24/6/16 18/5/16 22/23/16
f 18/5/17 1/1/17 22/23/17
f 22/3/18 23/25/18 6/26/18
f 22/3/19 17/2/19 23/25/19
f 17/2/20 5/13/20 23/25/20
f 8/27/21 21/14/21 5/13/21
f 8/27/22 15/28/22 21/14/22
f 15/28/23 4/10/23 21/14/23
f 16/29/24 20/11/24 4/10/24
f 16/29/25 13/30/25 20/11/25
f 13/30/26 3/7/26 20/11/26
f 14/31/27 19/8/27 3/7/27
f 14/31/28 11/32/28 19/8/28
f 11/32/29 2/22/29 19/8/29
f 12/33/30 18/5/30 2/4/30
f 12/33/31 9/34/31 18/5/31
f 9/34/32 1/1/32 18/5/32
f 10/35/33 17/2/33 1/1/33
f 10/35/34 7/36/34 17/2/34
f 7/36/35 5/13/35 17/2/35
f 15/28/36 16/29/36 4/10/36
f 9/34/37 13/30/37 15/28/37
f 13/30/38 14/31/38 3/7/38
f 11/32/39 12/37/39 2/22/39
f 9/34/40 10/35/40 1/1/40
f 7/36/41 8/27/41 5/13/41
f 15/28/37 8/27/37 7/36/37
f 7/36/37 10/35/37 15/28/37
f 10/35/37 9/34/37 15/28/37
f 9/34/37 12/33/37 11/32/37
f 11/32/37 14/31/37 13/30/37
f 13/30/37 16/29/37 15/28/37
f 9/34/37 11/32/37 13/30/37
