# Blender v3.1.2 OBJ File: 'shelby_cobra2.blend'
# www.blender.org
mtllib Shelby_Cobra_back_mirror_left_frame_screw.mtl
o Shelby_Cobra_back_mirror_left_frame_screw_Plane.018
v 0.625106 0.839001 0.081531
v 0.625318 0.841059 0.081418
v 0.625651 0.842988 0.082092
v 0.626056 0.844495 0.083451
v 0.626549 0.845377 0.085727
v 0.626704 0.845385 0.086621
v 0.627082 0.844706 0.089245
v 0.627187 0.843304 0.090764
v 0.627130 0.841431 0.091647
v 0.626918 0.839373 0.091760
v 0.626585 0.837444 0.091086
v 0.626180 0.835936 0.089728
v 0.625678 0.835052 0.087401
v 0.625522 0.835044 0.086507
v 0.625154 0.835726 0.083933
v 0.625048 0.837128 0.082415
v 0.626443 0.844313 0.085807
v 0.626600 0.844330 0.086700
v 0.625783 0.836109 0.087321
v 0.625627 0.836092 0.086428
v 0.626187 0.841730 0.086002
v 0.626345 0.841769 0.086894
v 0.626040 0.838692 0.087126
v 0.625881 0.838654 0.086235
v 0.625502 0.841036 0.081374
v 0.625290 0.838978 0.081488
v 0.625835 0.842965 0.082048
v 0.626240 0.844473 0.083407
v 0.626733 0.845354 0.085683
v 0.627266 0.844684 0.089201
v 0.626888 0.845362 0.086577
v 0.627371 0.843281 0.090720
v 0.627314 0.841408 0.091603
v 0.627102 0.839350 0.091717
v 0.626769 0.837421 0.091043
v 0.626364 0.835914 0.089684
v 0.625862 0.835030 0.087357
v 0.625338 0.835703 0.083890
v 0.625706 0.835021 0.086464
v 0.625232 0.837106 0.082371
v 0.626420 0.840773 0.082262
v 0.626251 0.839135 0.082352
v 0.626685 0.842308 0.082798
v 0.627007 0.843507 0.083879
v 0.627389 0.844205 0.085632
v 0.627824 0.843675 0.088489
v 0.627545 0.844222 0.086525
v 0.627907 0.842559 0.089698
v 0.627861 0.841069 0.090401
v 0.627693 0.839431 0.090491
v 0.627428 0.837896 0.089954
v 0.627106 0.836697 0.088873
v 0.626729 0.836001 0.087146
v 0.626289 0.836529 0.084263
v 0.626572 0.835984 0.086253
v 0.626205 0.837645 0.083055
v 0.627597 0.840265 0.084702
v 0.627534 0.839653 0.084735
v 0.627696 0.840840 0.084902
v 0.627817 0.841289 0.085307
v 0.627911 0.841534 0.085692
v 0.628122 0.841351 0.087032
v 0.628069 0.841573 0.086584
v 0.628154 0.840934 0.087484
v 0.628136 0.840376 0.087747
v 0.628073 0.839764 0.087781
v 0.627974 0.839189 0.087580
v 0.627854 0.838740 0.087176
v 0.627764 0.838496 0.086816
v 0.627548 0.838678 0.085451
v 0.627605 0.838458 0.085924
v 0.627517 0.839095 0.084998
v 0.624810 0.839034 0.081583
v 0.625022 0.841092 0.081469
v 0.625356 0.843021 0.082143
v 0.625760 0.844529 0.083502
v 0.626253 0.845410 0.085778
v 0.626409 0.845418 0.086672
v 0.626787 0.844739 0.089296
v 0.626892 0.843337 0.090815
v 0.626834 0.841464 0.091698
v 0.626622 0.839406 0.091812
v 0.626289 0.837477 0.091138
v 0.625884 0.835970 0.089779
v 0.625382 0.835086 0.087452
v 0.625227 0.835077 0.086559
v 0.624858 0.835759 0.083985
v 0.624753 0.837162 0.082466
v 0.625821 0.840249 0.086634
v 0.625821 0.840249 0.086634
v 0.625821 0.840249 0.086634
v 0.625821 0.840249 0.086634
v 0.625821 0.840249 0.086634
v 0.625821 0.840249 0.086634
v 0.625821 0.840249 0.086634
v 0.625821 0.840249 0.086634
v 0.625821 0.840249 0.086634
v 0.625821 0.840249 0.086634
v 0.625821 0.840249 0.086634
v 0.625821 0.840249 0.086634
v 0.625821 0.840249 0.086634
v 0.625821 0.840249 0.086634
v 0.625821 0.840249 0.086634
v 0.625821 0.840249 0.086634
v 0.625986 0.839269 0.088225
v 0.626104 0.839951 0.088463
v 0.625800 0.841761 0.085528
v 0.625657 0.841228 0.085048
v 0.625843 0.838737 0.087745
v 0.625974 0.842072 0.086332
v 0.625666 0.838425 0.086923
v 0.626029 0.842075 0.086648
v 0.625611 0.838422 0.086607
v 0.626162 0.841835 0.087575
v 0.625481 0.838662 0.085698
v 0.626199 0.841340 0.088111
v 0.625444 0.839158 0.085162
v 0.626179 0.840678 0.088423
v 0.625539 0.840547 0.084809
v 0.625464 0.839820 0.084849
v 0.619565 0.840952 0.087717
v 0.619565 0.840952 0.087717
v 0.619565 0.840952 0.087717
v 0.619565 0.840952 0.087717
v 0.619565 0.840952 0.087717
v 0.619565 0.840952 0.087717
v 0.619565 0.840952 0.087717
v 0.619565 0.840952 0.087717
v 0.619565 0.840952 0.087717
v 0.619565 0.840952 0.087717
v 0.619565 0.840952 0.087717
v 0.619565 0.840952 0.087717
v 0.619565 0.840952 0.087717
v 0.619565 0.840952 0.087717
v 0.619565 0.840952 0.087717
v 0.619565 0.840952 0.087717
v 0.619730 0.839973 0.089308
v 0.619848 0.840654 0.089546
v 0.619544 0.842464 0.086610
v 0.619401 0.841931 0.086130
v 0.619588 0.839440 0.088828
v 0.619718 0.842775 0.087414
v 0.619410 0.839128 0.088006
v 0.619773 0.842778 0.087730
v 0.619355 0.839125 0.087690
v 0.619906 0.842538 0.088657
v 0.619225 0.839366 0.086781
v 0.619943 0.842043 0.089194
v 0.619188 0.839861 0.086244
v 0.619923 0.841381 0.089506
v 0.619283 0.841250 0.085892
v 0.619208 0.840523 0.085932
vt 0.489150 0.508158
vt 0.489150 0.508158
vt 0.489150 0.508158
vt 0.489150 0.508158
vt 0.489150 0.508158
vt 0.489150 0.508158
vt 0.489150 0.508158
vt 0.489150 0.508158
vt 0.489150 0.508158
vt 0.489150 0.508158
vt 0.489150 0.508158
vt 0.489150 0.508158
vt 0.489150 0.508158
vt 0.489150 0.508158
vt 0.489150 0.508158
vt 0.489150 0.508158
vt 0.489150 0.508158
vt 0.489150 0.508158
vt 0.489150 0.508158
vt 0.489150 0.508158
vt 0.489150 0.508158
vt 0.489150 0.508158
vt 0.489150 0.508158
vt 0.489150 0.508158
vt 0.489150 0.508158
vt 0.489150 0.508158
vt 0.489150 0.508158
vt 0.489150 0.508158
vt 0.489150 0.508158
vt 0.489150 0.508158
vt 0.489150 0.508158
vt 0.489150 0.508158
vt 0.959403 0.494867
vt 1.000000 0.546347
vt 0.959403 0.545387
vt 1.000000 0.990272
vt 0.959403 0.939124
vt 1.000000 0.940085
vt 0.574057 0.808715
vt 0.527445 0.929834
vt 0.489150 0.808534
vt 0.039490 0.638077
vt 0.048765 0.768424
vt 0.039608 0.768941
vt 0.574057 0.665873
vt 0.620669 0.544735
vt 0.658964 0.665692
vt 0.953091 0.403934
vt 0.944533 0.494321
vt 0.943934 0.403418
vt 0.040153 0.508675
vt 0.048719 0.597004
vt 0.039563 0.597521
vt 0.065673 0.869406
vt 0.073912 0.784323
vt 0.074836 0.869597
vt 0.009487 0.593431
vt 0.001247 0.508350
vt 0.010410 0.508158
vt 0.574057 0.930258
vt 0.583221 0.979554
vt 0.574057 0.979397
vt 0.064749 0.784133
vt 0.073588 0.685728
vt 0.009163 0.692027
vt 0.000324 0.593621
vt 0.574057 0.544331
vt 0.564893 0.495024
vt 0.574057 0.494867
vt 0.064425 0.685536
vt 0.073912 0.588818
vt 0.009487 0.788937
vt 0.001247 0.869597
vt 0.000324 0.789127
vt 0.000000 0.692218
vt 0.574057 0.929844
vt 0.564893 0.979555
vt 1.000000 0.670059
vt 0.959403 0.668068
vt 0.959403 0.815410
vt 1.000000 0.817400
vt 0.574057 0.810136
vt 0.620669 0.930247
vt 0.065673 0.508158
vt 0.064749 0.588627
vt 0.658964 0.809955
vt 0.953690 0.142057
vt 0.943985 0.234310
vt 0.944533 0.141540
vt 0.574057 0.544745
vt 0.583221 0.495025
vt 0.574057 0.664450
vt 0.527445 0.544321
vt 0.049310 0.861111
vt 0.040153 0.861628
vt 0.489150 0.664270
vt 0.953142 0.234827
vt 0.943861 0.362899
vt 0.528270 0.379851
vt 0.633260 0.404554
vt 0.595105 0.452283
vt 0.835231 0.452136
vt 0.796125 0.358650
vt 0.849302 0.416280
vt 0.715204 0.438265
vt 0.701442 0.494867
vt 0.930100 0.449918
vt 0.943861 0.494868
vt 0.943861 0.000000
vt 0.842814 0.082068
vt 0.827076 0.032083
vt 0.586950 0.032231
vt 0.715203 0.044527
vt 0.626771 0.070342
vt 0.791790 0.135337
vt 0.762946 0.099034
vt 0.522821 0.099181
vt 0.575748 0.123611
vt 0.764999 0.206604
vt 0.729275 0.188606
vt 0.489150 0.188754
vt 0.550480 0.273296
vt 0.491063 0.287312
vt 0.548957 0.194879
vt 0.112195 0.611498
vt 0.111937 0.688603
vt 0.580083 0.346924
vt 0.112195 0.767051
vt 0.867876 0.271125
vt 0.766522 0.285022
vt 0.691056 0.275376
vt 0.878954 0.298678
vt 0.710955 0.296941
vt 0.898854 0.320243
vt 0.729275 0.308764
vt 0.916028 0.331992
vt 0.916028 0.184651
vt 0.896426 0.195177
vt 0.729275 0.161423
vt 0.708527 0.171876
vt 0.877332 0.215111
vt 0.689433 0.191809
vt 0.867306 0.241780
vt 0.679978 0.247823
vt 0.679408 0.218479
vt 0.967558 0.363446
vt 0.953018 0.363416
vt 0.025068 0.768971
vt 0.967682 0.234857
vt 0.051133 0.508169
vt 0.024026 0.788947
vt 0.024949 0.869417
vt 0.010410 0.869406
vt 0.050210 0.588638
vt 0.023702 0.692038
vt 0.049886 0.685547
vt 0.024026 0.593442
vt 0.050210 0.784144
vt 0.025613 0.508705
vt 0.968230 0.494868
vt 0.953690 0.494837
vt 0.025022 0.597551
vt 0.967631 0.403965
vt 0.024949 0.638107
vt 0.424190 0.508158
vt 0.389953 0.815924
vt 0.389953 0.508298
vt 0.361524 0.816272
vt 0.361524 0.508645
vt 0.689091 0.802582
vt 0.723924 0.494867
vt 0.723924 0.802494
vt 0.758162 0.495007
vt 0.758162 0.802634
vt 0.489150 0.508551
vt 0.459024 0.815873
vt 0.459024 0.508247
vt 0.424190 0.815785
vt 0.658964 0.802886
vt 0.689091 0.494956
vt 0.330136 0.815922
vt 0.361524 0.508541
vt 0.361524 0.816196
vt 0.204714 0.816092
vt 0.236829 0.508158
vt 0.236829 0.815813
vt 0.269365 0.508158
vt 0.218329 0.340595
vt 0.253399 0.344032
vt 0.124296 0.028953
vt 0.235883 0.164503
vt 0.202147 0.174732
vt 0.364854 0.479206
vt 0.314401 0.311466
vt 0.442033 0.415980
vt 0.287135 0.333803
vt 0.174880 0.197070
vt 0.047117 0.092179
vt 0.331047 0.280421
vt 0.489150 0.328106
vt 0.158234 0.228115
vt 0.000000 0.180053
vt 0.489150 0.198633
vt 0.331047 0.234679
vt 0.000764 0.311870
vt 0.158504 0.274685
vt 0.326974 0.219787
vt 0.477619 0.156482
vt 0.162578 0.289576
vt 0.012295 0.354021
vt 0.302016 0.184520
vt 0.406975 0.056657
vt 0.187266 0.324015
vt 0.082175 0.451501
vt 0.319049 0.009728
vt 0.270952 0.167940
vt 0.170101 0.498430
vt 0.219785 0.000000
vt 0.864240 0.494867
vt 0.873030 0.584736
vt 0.873030 0.584736
vt 0.846684 0.670959
vt 0.873030 0.584736
vt 0.873030 0.584736
vt 0.899309 0.498305
vt 0.873030 0.584736
vt 0.790933 0.619940
vt 0.815621 0.654379
vt 0.955330 0.550152
vt 0.930372 0.514885
vt 0.786860 0.605048
vt 0.873030 0.584736
vt 0.959403 0.565044
vt 0.873030 0.584736
vt 0.873030 0.584736
vt 0.873030 0.584736
vt 0.873030 0.584736
vt 0.873030 0.584736
vt 0.803237 0.527433
vt 0.786591 0.558478
vt 0.942756 0.641831
vt 0.959403 0.610786
vt 0.830503 0.505096
vt 0.873030 0.584736
vt 0.915490 0.664168
vt 0.873030 0.584736
vt 0.873030 0.584736
vt 0.873030 0.584736
vt 0.873030 0.584736
vt 0.881754 0.674396
vt 0.786591 0.495355
vt 0.786591 0.802981
vt 0.112195 0.816075
vt 0.144970 0.508545
vt 0.144970 0.816199
vt 0.236829 0.815938
vt 0.269575 0.508158
vt 0.269575 0.815813
vt 0.190399 0.508493
vt 0.190399 0.816148
vt 0.315808 0.508212
vt 0.315808 0.815867
vt 0.204714 0.508437
vt 0.330136 0.508267
vt 1.000000 0.495404
vt 0.959403 0.989734
vt 0.048646 0.637560
vt 0.049310 0.508158
vt 0.574057 0.979398
vt 0.074836 0.508349
vt 0.574057 0.494867
vt 0.768395 0.379703
vt 0.930101 0.056180
vt 0.701442 0.000000
vt 0.025613 0.861658
vt 0.968230 0.142088
vt 0.024949 0.508169
vt 0.051133 0.869417
vt 0.489150 0.816177
vt 0.658964 0.495260
vt 0.112195 0.508420
vt 0.236829 0.508283
vn 0.0000 0.0000 1.0000
vn -0.3864 -0.8938 0.2275
vn -0.8218 0.0359 -0.5686
vn -0.5613 0.1205 0.8188
vn -0.2683 0.9557 -0.1212
vn -0.5619 0.1148 0.8192
vn -0.8213 0.0414 -0.5690
vn -0.5648 0.1172 0.8169
vn -0.5324 0.4790 0.6979
vn -0.6095 0.2542 0.7509
vn -0.5990 -0.7297 -0.3297
vn -0.1961 -0.8676 -0.4569
vn -0.8194 0.0376 -0.5720
vn -0.8294 -0.3254 -0.4541
vn -0.8658 -0.0880 -0.4927
vn -0.1708 0.9780 0.1195
vn -0.4399 0.7892 -0.4285
vn -0.1673 0.8373 0.5205
vn 0.0176 -0.8277 0.5609
vn -0.5359 -0.7629 -0.3615
vn -0.4420 -0.8969 -0.0177
vn -0.0190 0.8249 -0.5650
vn -0.5299 0.5152 -0.6736
vn 0.1113 -0.5258 0.8433
vn -0.4012 -0.7005 0.5902
vn -0.3738 0.7955 -0.4768
vn -0.1122 0.5216 -0.8458
vn -0.5917 0.1922 -0.7829
vn 0.1802 -0.1623 0.9701
vn -0.3185 -0.4290 0.8453
vn -0.3267 -0.6999 0.6352
vn -0.1804 0.1599 -0.9705
vn -0.6283 -0.1509 -0.7632
vn 0.2215 0.2257 0.9487
vn -0.2106 0.5748 0.7907
vn -0.2164 0.2536 0.9428
vn -0.2544 -0.0995 0.9620
vn -0.5647 0.1184 0.8168
vn -0.8193 0.0387 -0.5720
vn -0.7550 0.4152 -0.5075
vn -0.2289 -0.5763 -0.7845
vn -0.2212 -0.2252 -0.9489
vn -0.8385 0.1825 -0.5134
vn 0.2290 0.5792 0.7823
vn -0.2371 0.8367 0.4937
vn -0.6072 -0.2621 0.7501
vn -0.6346 -0.4643 -0.6178
vn -0.6357 -0.0166 0.7718
vn 0.1953 0.8700 0.4526
vn -0.8636 -0.2837 0.4167
vn -0.9135 0.3343 -0.2318
vn -0.8735 0.4741 -0.1104
vn -0.9510 -0.3033 -0.0595
vn -0.7820 0.5034 0.3676
vn -0.9652 -0.1642 -0.2037
vn -0.7729 0.3674 0.5173
vn -0.9605 -0.0048 -0.2782
vn -0.7960 0.0242 0.6048
vn -0.7772 0.2040 0.5952
vn -0.9424 0.1698 -0.2881
vn -0.8262 -0.1436 0.5447
vn -0.9909 0.1343 0.0077
vn -0.9517 0.0232 0.3060
vn -0.9806 0.1939 0.0284
vn -0.9629 -0.0117 0.2695
vn -0.9718 0.2269 0.0644
vn -0.9966 -0.0210 0.0800
vn -0.9370 0.2402 0.2535
vn -0.9992 0.0136 0.0383
vn -0.9332 0.2035 0.2961
vn -0.9974 0.0712 0.0111
vn -0.9415 0.0828 0.3268
vn -0.9349 0.1460 0.3233
vn 0.7590 0.6499 -0.0388
vn 0.5084 -0.7304 -0.4561
vn 0.7765 0.5845 0.2354
vn 0.5014 -0.5069 -0.7011
vn 0.7945 0.0976 0.5994
vn 0.8026 0.3603 0.4754
vn 0.5096 -0.2441 -0.8251
vn 0.7648 -0.1911 0.6153
vn 0.5393 0.0445 -0.8410
vn 0.7179 -0.4622 0.5206
vn 0.5861 0.3156 -0.7463
vn 0.6498 -0.6922 0.3142
vn 0.6416 0.5487 -0.5360
vn 0.5999 -0.7992 0.0360
vn 0.7122 0.6517 -0.2608
vn 0.5707 -0.7991 -0.1891
vn 0.8374 -0.1869 0.5136
vn 0.7945 0.0975 0.5994
vn 0.8636 0.0675 0.4996
vn 0.8025 0.3603 0.4755
vn 0.8708 0.2990 0.3903
vn 0.6802 0.2595 -0.6856
vn 0.5393 0.0446 -0.8409
vn 0.6388 0.0208 -0.7691
vn 0.5097 -0.2442 -0.8250
vn 0.6127 -0.2334 -0.7551
vn 0.7498 -0.6175 0.2378
vn 0.7179 -0.4622 0.5205
vn 0.7962 -0.4255 0.4301
vn 0.7648 -0.1911 0.6152
vn 0.7439 0.4501 -0.4939
vn 0.5861 0.3156 -0.7462
vn 0.6840 -0.7295 0.0062
vn 0.6498 -0.6922 0.3141
vn 0.7830 0.5659 -0.2583
vn 0.6416 0.5487 -0.5361
vn 0.6056 -0.4648 -0.6459
vn 0.8644 0.4749 0.1653
vn 0.6376 -0.6437 -0.4232
vn 0.8100 0.5838 -0.0552
vn 0.6357 -0.7473 -0.1932
vn 0.0617 -0.0069 0.9981
vn 0.0618 -0.0069 0.9981
vn 0.1374 -0.0154 0.9904
vn 0.0619 -0.0070 0.9981
vn 0.1388 -0.0156 0.9902
vn 0.5999 -0.7992 0.0361
vn 0.7123 0.6516 -0.2607
vn 0.5708 -0.7991 -0.1887
vn 0.0272 -0.0031 0.9996
vn 0.7590 0.6500 -0.0386
vn 0.1453 -0.0163 0.9893
vn 0.1439 -0.0162 0.9895
vn 0.5015 -0.5070 -0.7011
vn 0.7764 0.5845 0.2355
usemtl chrom.002
s off
f 100/1/1 133/2/1 101/3/1
f 99/4/1 132/5/1 100/1/1
f 98/6/1 131/7/1 99/4/1
f 97/8/1 130/9/1 98/6/1
f 96/10/1 129/11/1 97/8/1
f 95/12/1 128/13/1 96/10/1
f 94/14/1 127/15/1 95/12/1
f 101/3/1 134/16/1 102/17/1
f 102/17/1 135/18/1 103/19/1
f 89/20/1 122/21/1 90/22/1
f 103/19/1 136/23/1 104/24/1
f 90/22/1 123/25/1 91/26/1
f 104/24/1 121/27/1 89/20/1
f 91/26/1 124/28/1 92/29/1
f 92/29/1 125/30/1 93/31/1
f 93/31/1 126/32/1 94/14/1
f 100/1/1 132/5/1 133/2/1
f 99/4/1 131/7/1 132/5/1
f 98/6/1 130/9/1 131/7/1
f 97/8/1 129/11/1 130/9/1
f 96/10/1 128/13/1 129/11/1
f 95/12/1 127/15/1 128/13/1
f 94/14/1 126/32/1 127/15/1
f 101/3/1 133/2/1 134/16/1
f 102/17/1 134/16/1 135/18/1
f 89/20/1 121/27/1 122/21/1
f 103/19/1 135/18/1 136/23/1
f 90/22/1 122/21/1 123/25/1
f 104/24/1 136/23/1 121/27/1
f 91/26/1 123/25/1 124/28/1
f 92/29/1 124/28/1 125/30/1
f 93/31/1 125/30/1 126/32/1
s 1
f 6/33/2 17/34/3 18/35/4
f 14/36/5 19/37/6 20/38/7
f 23/39/8 53/40/9 69/41/10
f 6/42/2 30/43/11 7/44/12
f 21/45/13 45/46/14 61/47/15
f 13/48/16 36/49/17 37/50/18
f 4/51/19 29/52/20 5/53/21
f 12/54/22 35/55/23 36/56/17
f 3/57/24 28/58/25 4/59/19
f 20/60/7 39/61/26 14/62/5
f 11/63/27 34/64/28 35/55/23
f 2/65/29 27/66/30 3/57/24
f 18/67/4 31/68/31 6/69/2
f 10/70/32 33/71/33 34/64/28
f 1/72/34 40/73/35 26/74/36
f 1/72/34 25/75/37 2/65/29
f 19/76/6 37/77/18 53/40/9
f 18/35/4 21/78/13 22/79/38
f 20/38/7 23/80/8 24/81/39
f 24/82/39 55/83/40 20/60/7
f 8/84/41 33/71/33 9/85/42
f 24/82/39 61/47/15 71/86/43
f 16/87/44 38/88/45 40/89/35
f 17/90/3 29/91/20 45/46/14
f 22/92/38 47/93/46 18/67/4
f 7/44/12 32/94/47 8/95/41
f 22/79/38 24/81/39 23/80/8
f 23/39/8 63/96/48 22/92/38
f 15/97/49 39/98/26 38/88/45
f 27/99/30 44/100/50 28/101/25
f 36/102/17 51/103/51 52/104/52
f 28/101/25 45/105/14 29/106/20
f 36/102/17 53/107/9 37/108/18
f 31/109/31 46/110/53 30/111/11
f 38/112/45 55/113/40 54/114/54
f 30/111/11 48/115/55 32/116/47
f 40/117/35 54/114/54 56/118/56
f 32/116/47 49/119/57 33/120/33
f 26/121/36 41/122/58 25/123/37
f 26/121/36 56/118/56 42/124/59
f 34/64/28 49/125/57 50/126/60
f 25/123/37 43/127/61 27/99/30
f 35/55/23 50/126/60 51/128/51
f 49/119/57 66/129/62 50/130/60
f 41/122/58 59/131/63 43/127/61
f 50/130/60 67/132/64 51/103/51
f 43/127/61 60/133/65 44/100/50
f 51/103/51 68/134/66 52/104/52
f 44/100/50 61/135/15 45/105/14
f 52/104/52 69/136/10 53/107/9
f 46/110/53 63/137/48 62/138/67
f 54/114/54 71/139/43 70/140/68
f 48/115/55 62/138/67 64/141/69
f 56/118/56 70/140/68 72/142/70
f 49/119/57 64/141/69 65/143/71
f 42/124/59 57/144/72 41/122/58
f 42/124/59 72/142/70 58/145/73
f 65/143/71 64/141/69 68/134/66
f 60/133/65 59/131/63 57/144/72
f 15/97/49 86/146/74 14/147/5
f 8/95/41 79/148/75 7/44/12
f 16/87/44 87/149/76 15/97/49
f 9/85/42 80/150/77 8/84/41
f 2/65/29 73/151/78 1/72/34
f 1/72/34 88/152/79 16/153/44
f 10/70/32 81/154/80 9/85/42
f 3/57/24 74/155/81 2/65/29
f 11/63/27 82/156/82 10/70/32
f 4/59/19 75/157/83 3/57/24
f 12/54/22 83/158/84 11/63/27
f 5/53/21 76/159/85 4/51/19
f 13/48/16 84/160/86 12/161/22
f 6/42/2 77/162/87 5/53/21
f 14/147/5 85/163/88 13/48/16
f 7/44/12 78/164/89 6/42/2
f 119/165/90 152/166/91 120/167/92
f 120/167/92 149/168/93 117/169/94
f 105/170/95 138/171/96 106/172/97
f 106/172/97 150/173/98 118/174/99
f 107/175/100 140/176/101 108/177/102
f 108/177/102 151/178/103 119/165/90
f 109/179/104 137/180/105 105/170/95
f 110/181/106 139/182/107 107/183/100
f 111/184/108 141/185/109 109/186/104
f 74/187/81 108/188/102 119/189/90
f 81/190/80 106/191/97 118/192/99
f 73/193/78 117/194/94 88/195/79
f 73/193/78 119/189/90 120/196/92
f 81/190/80 116/197/110 80/198/77
f 88/195/79 115/199/111 87/200/76
f 80/198/77 114/201/112 79/202/75
f 86/203/74 115/199/111 113/204/113
f 78/205/89 114/201/112 112/206/114
f 86/203/74 111/207/108 85/208/88
f 78/205/89 110/209/106 77/210/87
f 85/208/88 109/211/104 84/212/86
f 77/210/87 107/213/100 76/214/85
f 83/215/84 109/211/104 105/216/95
f 75/217/83 107/213/100 108/188/102
f 82/218/82 105/216/95 106/191/97
f 138/219/96 131/220/115 130/221/116
f 140/222/101 124/223/117 123/224/118
f 137/225/105 132/226/119 131/220/115
f 142/227/120 124/223/117 139/228/107
f 143/229/121 132/226/119 141/230/109
f 144/231/122 125/232/123 142/227/120
f 145/233/124 133/234/123 143/229/121
f 144/231/122 127/235/125 126/236/1
f 145/233/124 135/237/126 134/238/1
f 148/239/127 127/235/125 146/240/75
f 149/241/93 135/237/126 147/242/128
f 150/243/98 128/244/116 148/239/127
f 152/245/91 122/246/118 121/247/1
f 152/245/91 136/248/118 149/241/93
f 150/243/98 130/221/116 129/249/1
f 151/250/103 123/224/118 122/246/118
f 118/174/99 148/251/127 116/252/110
f 117/253/94 147/254/128 115/255/111
f 116/256/110 146/257/75 114/258/112
f 115/255/111 145/259/124 113/260/113
f 114/258/112 144/261/122 112/262/114
f 113/260/113 143/263/121 111/184/108
f 112/262/114 142/264/120 110/181/106
f 6/33/2 5/265/21 17/34/3
f 14/36/5 13/266/16 19/37/6
f 23/39/8 19/76/6 53/40/9
f 6/42/2 31/267/31 30/43/11
f 21/45/13 17/90/3 45/46/14
f 13/48/16 12/161/22 36/49/17
f 4/51/19 28/268/25 29/52/20
f 12/54/22 11/63/27 35/55/23
f 3/57/24 27/66/30 28/58/25
f 20/60/7 55/83/40 39/61/26
f 11/63/27 10/70/32 34/64/28
f 2/65/29 25/75/37 27/66/30
f 18/67/4 47/93/46 31/68/31
f 10/70/32 9/85/42 33/71/33
f 1/72/34 16/153/44 40/73/35
f 1/72/34 26/74/36 25/75/37
f 19/76/6 13/269/16 37/77/18
f 18/35/4 17/34/3 21/78/13
f 20/38/7 19/37/6 23/80/8
f 24/82/39 71/86/43 55/83/40
f 8/84/41 32/270/47 33/71/33
f 24/82/39 21/45/13 61/47/15
f 16/87/44 15/97/49 38/88/45
f 17/90/3 5/271/21 29/91/20
f 22/92/38 63/96/48 47/93/46
f 7/44/12 30/43/11 32/94/47
f 22/79/38 21/78/13 24/81/39
f 23/39/8 69/41/10 63/96/48
f 15/97/49 14/147/5 39/98/26
f 27/99/30 43/127/61 44/100/50
f 36/102/17 35/272/23 51/103/51
f 28/101/25 44/100/50 45/105/14
f 36/102/17 52/104/52 53/107/9
f 31/109/31 47/273/46 46/110/53
f 38/112/45 39/274/26 55/113/40
f 30/111/11 46/110/53 48/115/55
f 40/117/35 38/112/45 54/114/54
f 32/116/47 48/115/55 49/119/57
f 26/121/36 42/124/59 41/122/58
f 26/121/36 40/117/35 56/118/56
f 34/64/28 33/71/33 49/125/57
f 25/123/37 41/122/58 43/127/61
f 35/55/23 34/64/28 50/126/60
f 49/119/57 65/143/71 66/129/62
f 41/122/58 57/144/72 59/131/63
f 50/130/60 66/129/62 67/132/64
f 43/127/61 59/131/63 60/133/65
f 51/103/51 67/132/64 68/134/66
f 44/100/50 60/133/65 61/135/15
f 52/104/52 68/134/66 69/136/10
f 46/110/53 47/273/46 63/137/48
f 54/114/54 55/113/40 71/139/43
f 48/115/55 46/110/53 62/138/67
f 56/118/56 54/114/54 70/140/68
f 49/119/57 48/115/55 64/141/69
f 42/124/59 58/145/73 57/144/72
f 42/124/59 56/118/56 72/142/70
f 64/141/69 62/138/67 68/134/66
f 62/138/67 63/137/48 68/134/66
f 63/137/48 69/136/10 68/134/66
f 68/134/66 67/132/64 66/129/62
f 66/129/62 65/143/71 68/134/66
f 57/144/72 58/145/73 72/142/70
f 72/142/70 70/140/68 57/144/72
f 70/140/68 71/139/43 60/133/65
f 57/144/72 70/140/68 60/133/65
f 71/139/43 61/135/15 60/133/65
f 15/97/49 87/149/76 86/146/74
f 8/95/41 80/275/77 79/148/75
f 16/87/44 88/276/79 87/149/76
f 9/85/42 81/154/80 80/150/77
f 2/65/29 74/155/81 73/151/78
f 1/72/34 73/151/78 88/152/79
f 10/70/32 82/156/82 81/154/80
f 3/57/24 75/157/83 74/155/81
f 11/63/27 83/158/84 82/156/82
f 4/59/19 76/277/85 75/157/83
f 12/54/22 84/278/86 83/158/84
f 5/53/21 77/162/87 76/159/85
f 13/48/16 85/163/88 84/160/86
f 6/42/2 78/164/89 77/162/87
f 14/147/5 86/146/74 85/163/88
f 7/44/12 79/148/75 78/164/89
f 119/165/90 151/178/103 152/166/91
f 120/167/92 152/166/91 149/168/93
f 105/170/95 137/180/105 138/171/96
f 106/172/97 138/171/96 150/173/98
f 107/175/100 139/279/107 140/176/101
f 108/177/102 140/176/101 151/178/103
f 109/179/104 141/280/109 137/180/105
f 110/181/106 142/264/120 139/182/107
f 111/184/108 143/263/121 141/185/109
f 74/187/81 75/217/83 108/188/102
f 81/190/80 82/218/82 106/191/97
f 73/193/78 120/196/92 117/194/94
f 73/193/78 74/187/81 119/189/90
f 81/190/80 118/192/99 116/197/110
f 88/195/79 117/194/94 115/199/111
f 80/198/77 116/197/110 114/201/112
f 86/203/74 87/200/76 115/199/111
f 78/205/89 79/202/75 114/201/112
f 86/203/74 113/204/113 111/207/108
f 78/205/89 112/206/114 110/209/106
f 85/208/88 111/207/108 109/211/104
f 77/210/87 110/209/106 107/213/100
f 83/215/84 84/212/86 109/211/104
f 75/217/83 76/214/85 107/213/100
f 82/218/82 83/215/84 105/216/95
f 138/219/96 137/225/105 131/220/115
f 140/222/101 139/228/107 124/223/117
f 137/225/105 141/230/109 132/226/119
f 142/227/120 125/232/123 124/223/117
f 143/229/121 133/234/123 132/226/119
f 144/231/122 126/236/1 125/232/123
f 145/233/124 134/238/1 133/234/123
f 144/231/122 146/240/75 127/235/125
f 145/233/124 147/242/128 135/237/126
f 148/239/127 128/244/116 127/235/125
f 149/241/93 136/248/118 135/237/126
f 150/243/98 129/249/1 128/244/116
f 152/245/91 151/250/103 122/246/118
f 152/245/91 121/247/1 136/248/118
f 150/243/98 138/219/96 130/221/116
f 151/250/103 140/222/101 123/224/118
f 118/174/99 150/173/98 148/251/127
f 117/253/94 149/281/93 147/254/128
f 116/256/110 148/282/127 146/257/75
f 115/255/111 147/254/128 145/259/124
f 114/258/112 146/257/75 144/261/122
f 113/260/113 145/259/124 143/263/121
f 112/262/114 144/261/122 142/264/120
