# Blender v3.1.2 OBJ File: 'shelby_cobra2.blend'
# www.blender.org
mtllib Shelby_Cobra_interior_cover.mtl
o Shelby_Cobra_interior_cover_Plane.006
v -0.687988 0.698759 0.251122
v 0.669437 0.698759 0.251122
v -0.683614 0.190918 0.384421
v 0.665064 0.190918 0.384421
v -0.702262 0.382558 0.362042
v -0.702262 0.551839 0.333089
v 0.683711 0.551839 0.333089
v 0.683711 0.382558 0.362042
v -0.678803 0.190918 -0.556748
v 0.660252 0.190918 -0.556748
vt 1.000000 0.666667
vt 0.000000 1.000000
vt 0.000000 0.666667
vt 1.000000 0.000000
vt 0.000000 0.333333
vt 0.000000 0.000000
vt 1.000000 0.333333
vt 1.000000 1.000000
vt 0.000000 1.000000
vt 1.000000 1.000000
vn -0.0000 -0.1160 -0.9933
vn 0.0000 -0.4872 -0.8733
vn 0.0000 -0.1686 -0.9857
vn 0.0000 1.0000 -0.0000
usemtl Material.010
s off
f 8/1/1 3/2/1 5/3/1
f 2/4/2 6/5/2 1/6/2
f 7/7/3 5/3/3 6/5/3
f 4/8/4 9/9/4 3/2/4
f 8/1/1 4/8/1 3/2/1
f 2/4/2 7/7/2 6/5/2
f 7/7/3 8/1/3 5/3/3
f 4/8/4 10/10/4 9/9/4
